<svg width="105" height="104" viewBox="0 0 105 104" fill="none" xmlns="http://www.w3.org/2000/svg">
<path d="M44.3193 14.4558C47.327 14.4552 50.3269 14.7591 53.2733 15.363C58.961 16.5346 64.3611 18.8186 69.1633 22.0837C75.8165 26.5931 81.1322 32.8115 84.5516 40.0852C87.971 47.3589 89.368 55.4195 88.5957 63.4197C87.8234 71.4199 84.9103 79.0643 80.1626 85.5496C75.4149 92.035 69.0079 97.1216 61.615 100.275C58.9275 101.417 56.1332 102.289 53.2733 102.878C47.0716 104.135 40.6731 104.057 34.5041 102.648C28.335 101.239 22.537 98.531 17.4964 94.7055C12.4557 90.88 8.2881 86.0243 5.27111 80.4619C2.25413 74.8995 0.457057 68.758 -0.000394516 62.4466C4.86259 63.5842 9.91404 63.6569 14.8077 62.6598C19.1994 61.7604 23.3709 60.005 27.0843 57.4938C32.6042 53.7677 36.9251 48.5207 39.5234 42.3886C40.4013 40.3116 41.0714 38.1529 41.524 35.9439C42.4881 31.2112 42.4525 26.3293 41.4193 21.6112C40.8992 19.2518 40.1303 16.9541 39.1253 14.757C40.8493 14.5562 42.5836 14.4557 44.3193 14.4558Z" fill="#713FFD"/>
<g filter="url(#filter0_f_480_2069)">
<path d="M74.3892 28.2635C64.4136 19.2814 51.3455 17.5324 45.2007 24.3569C39.0559 31.1814 42.1613 43.9951 52.1369 52.9772C62.1124 61.9592 75.1806 63.7082 81.3254 56.8837C87.4702 50.0592 84.3648 37.2455 74.3892 28.2635Z" fill="#A586FC"/>
</g>
<defs>
<filter id="filter0_f_480_2069" x="22.0459" y="0.19397" width="82.4346" height="80.8527" filterUnits="userSpaceOnUse" color-interpolation-filters="sRGB">
<feFlood flood-opacity="0" result="BackgroundImageFix"/>
<feBlend mode="normal" in="SourceGraphic" in2="BackgroundImageFix" result="shape"/>
<feGaussianBlur stdDeviation="10" result="effect1_foregroundBlur_480_2069"/>
</filter>
</defs>
</svg>
