<svg width="191" height="142" viewBox="0 0 191 142" fill="none" xmlns="http://www.w3.org/2000/svg">
<g filter="url(#filter0_d_480_2146)">
<path d="M117.438 109.77H46.6078C39.7368 109.765 33.1341 107.102 28.1821 102.338C23.23 97.5752 20.3126 91.0809 20.0404 84.2153C19.7683 77.3496 22.1626 70.6448 26.7221 65.5045C31.2815 60.3642 37.6527 57.187 44.5018 56.6379C45.4785 49.7411 48.5929 43.3241 53.4068 38.2896C58.2208 33.2551 64.4919 29.8566 71.3381 28.5721C78.1843 27.2876 85.2609 28.1818 91.5723 31.1289C97.8837 34.076 103.112 38.9277 106.523 45.0014C112.778 42.8362 119.536 42.5832 125.935 44.2747C132.334 45.9663 138.085 49.5256 142.453 54.4988C146.821 59.472 149.608 65.6336 150.46 72.1977C151.312 78.7617 150.189 85.4307 147.235 91.3539C145.501 96.7054 142.116 101.37 137.567 104.679C133.018 107.987 127.537 109.77 121.912 109.77H117.438Z" fill="url(#paint0_linear_480_2146)"/>
<path d="M121.912 109.4C124.768 109.4 127.576 108.944 130.258 108.044C132.852 107.175 135.287 105.905 137.496 104.272C139.68 102.657 141.594 100.723 143.185 98.5229C144.796 96.2955 146.04 93.8452 146.882 91.2401L146.891 91.2134L146.904 91.1883C148.024 88.9505 148.886 86.5833 149.467 84.1524C150.065 81.651 150.368 79.0662 150.368 76.4698C150.368 74.2353 150.143 72.0024 149.699 69.8329C149.266 67.7188 148.621 65.6393 147.78 63.6522C146.955 61.701 145.933 59.8191 144.744 58.0587C143.566 56.3149 142.213 54.6751 140.723 53.1849C139.233 51.6946 137.593 50.3416 135.849 49.1636C134.089 47.9742 132.207 46.9528 130.255 46.1275C128.268 45.287 126.189 44.6415 124.075 44.2088C121.905 43.7649 119.672 43.5398 117.438 43.5398C113.738 43.5398 110.106 44.1487 106.644 45.3496L106.352 45.4509L106.2 45.1814C103.382 40.1709 99.2833 35.963 94.3467 33.0127C91.8501 31.5206 89.1678 30.3676 86.3745 29.5857C83.4928 28.779 80.4995 28.37 77.4778 28.37C73.4134 28.37 69.446 29.1015 65.6856 30.5441C62.053 31.9378 58.7205 33.951 55.7809 36.5278C52.8582 39.0897 50.4328 42.1126 48.5719 45.5124C46.6653 48.9957 45.4192 52.7557 44.8682 56.6879L44.8269 56.9823L44.5306 57.0054C41.2161 57.2649 38.0271 58.1376 35.0523 59.5992C32.1617 61.0194 29.5805 62.9404 27.3804 65.3087C22.8597 70.1751 20.37 76.5156 20.37 83.1621C20.37 86.7043 21.0637 90.1404 22.4317 93.3749C23.0893 94.9295 23.9032 96.4289 24.8508 97.8316C25.7895 99.221 26.8675 100.528 28.0549 101.715C29.2423 102.902 30.5488 103.98 31.9382 104.919C33.3409 105.867 34.8403 106.681 36.3949 107.338C39.6294 108.706 43.0655 109.4 46.6077 109.4H117.438H121.912ZM121.912 109.77H117.438H46.6077C31.9127 109.77 20 97.8571 20 83.1621C20 69.1757 30.7909 57.7098 44.5018 56.6366C46.7697 40.4532 60.6693 28 77.4778 28C89.9476 28 100.816 34.8536 106.522 45C109.942 43.814 113.615 43.1698 117.438 43.1698C135.829 43.1698 150.738 58.0789 150.738 76.4698C150.738 81.8197 149.476 86.8746 147.234 91.3539C143.78 102.04 133.748 109.77 121.912 109.77Z" fill="white" fill-opacity="0.5"/>
</g>
<path d="M108 98.5C108 102.09 105.09 105 101.5 105C97.9101 105 95 102.09 95 98.5C95 94.9101 97.9101 92 101.5 92C105.09 92 108 94.9101 108 98.5Z" fill="#42A0F0"/>
<path d="M72 98.5C72 102.09 69.0899 105 65.5 105C61.9101 105 59 102.09 59 98.5C59 94.9101 61.9101 92 65.5 92C69.0899 92 72 94.9101 72 98.5Z" fill="#42A0F0"/>
<path d="M91 125.5C91 129.09 88.0899 132 84.5 132C80.9101 132 78 129.09 78 125.5C78 121.91 80.9101 119 84.5 119C88.0899 119 91 121.91 91 125.5Z" fill="#42A0F0"/>
<path d="M121 125.5C121 129.09 118.09 132 114.5 132C110.91 132 108 129.09 108 125.5C108 121.91 110.91 119 114.5 119C118.09 119 121 121.91 121 125.5Z" fill="#42A0F0"/>
<path d="M62 125.5C62 129.09 59.0899 132 55.5 132C51.9101 132 49 129.09 49 125.5C49 121.91 51.9101 119 55.5 119C59.0899 119 62 121.91 62 125.5Z" fill="#42A0F0"/>
<defs>
<filter id="filter0_d_480_2146" x="0" y="0" width="190.737" height="141.77" filterUnits="userSpaceOnUse" color-interpolation-filters="sRGB">
<feFlood flood-opacity="0" result="BackgroundImageFix"/>
<feColorMatrix in="SourceAlpha" type="matrix" values="0 0 0 0 0 0 0 0 0 0 0 0 0 0 0 0 0 0 127 0" result="hardAlpha"/>
<feOffset dx="10" dy="2"/>
<feGaussianBlur stdDeviation="15"/>
<feColorMatrix type="matrix" values="0 0 0 0 0.501961 0 0 0 0 0.501961 0 0 0 0 0.501961 0 0 0 0.302 0"/>
<feBlend mode="normal" in2="BackgroundImageFix" result="effect1_dropShadow_480_2146"/>
<feBlend mode="normal" in="SourceGraphic" in2="effect1_dropShadow_480_2146" result="shape"/>
</filter>
<linearGradient id="paint0_linear_480_2146" x1="85.3782" y1="28.0009" x2="123.356" y2="119.821" gradientUnits="userSpaceOnUse">
<stop stop-color="white" stop-opacity="0.604"/>
<stop offset="1" stop-color="white" stop-opacity="0.2"/>
</linearGradient>
</defs>
</svg>
