<svg width="192" height="148" viewBox="0 0 192 148" fill="none" xmlns="http://www.w3.org/2000/svg">
<path d="M42.2087 15.1176C44.8024 15.117 47.3894 15.379 49.9303 15.8998C54.8341 16.9098 59.4899 18.8789 63.6303 21.694C69.3664 25.5818 73.9493 30.943 76.8974 37.2142C79.8455 43.4853 81.0499 50.4348 80.384 57.3322C79.7181 64.2297 77.2065 70.8204 73.1131 76.4118C69.0198 82.0031 63.4959 86.3886 57.122 89.1072C54.8049 90.0918 52.3957 90.8435 49.9299 91.3513C44.583 92.4355 39.0665 92.3679 33.7478 91.153C28.4291 89.9381 23.4303 87.6038 19.0845 84.3056C14.7386 81.0074 11.1455 76.821 8.54438 72.0253C5.94328 67.2296 4.39394 61.9346 3.99957 56.4932C8.19223 57.4744 12.5475 57.5376 16.7668 56.6782C20.553 55.9028 24.1495 54.3895 27.351 52.2245C32.1101 49.0117 35.8352 44.4877 38.0751 39.2005C38.8319 37.4099 39.4096 35.5487 39.7997 33.6443C40.6311 29.5636 40.6003 25.3543 39.7094 21.2862C39.2612 19.2521 38.5984 17.2712 37.7321 15.377C39.218 15.2041 40.7128 15.1175 42.2087 15.1176V15.1176Z" fill="#713FFD"/>
<g filter="url(#filter0_f_480_2156)">
<path d="M68.1352 27.0215C59.5347 19.2776 48.2679 17.7698 42.97 23.6536C37.6721 29.5375 40.3494 40.5851 48.9499 48.329C57.5504 56.0729 68.8172 57.5807 74.1151 51.6968C79.413 45.813 76.7357 34.7654 68.1352 27.0215Z" fill="#A586FC"/>
</g>
<g filter="url(#filter1_d_480_2156)">
<path d="M117.96 115.814H47.1303C40.2593 115.809 33.6566 113.146 28.7045 108.382C23.7525 103.619 20.835 97.1249 20.5629 90.2592C20.2908 83.3935 22.685 76.6888 27.2445 71.5485C31.804 66.4082 38.1752 63.2309 45.0243 62.6819C46.001 55.7851 49.1154 49.368 53.9293 44.3336C58.7432 39.2991 65.0144 35.9005 71.8606 34.616C78.7067 33.3315 85.7833 34.2258 92.0948 37.1729C98.4062 40.12 103.635 44.9717 107.045 51.0454C113.3 48.8801 120.058 48.6272 126.457 50.3187C132.857 52.0102 138.607 55.5696 142.975 60.5428C147.343 65.516 150.131 71.6775 150.982 78.2416C151.834 84.8057 150.711 91.4746 147.757 97.3979C146.023 102.749 142.639 107.414 138.09 110.723C133.54 114.031 128.059 115.814 122.434 115.814H117.96Z" fill="url(#paint0_linear_480_2156)"/>
<path d="M122.434 115.444C125.29 115.444 128.099 114.988 130.781 114.088C133.375 113.218 135.81 111.949 138.019 110.316C140.202 108.701 142.116 106.767 143.707 104.567C145.319 102.339 146.563 99.889 147.405 97.2839L147.413 97.2572L147.426 97.2321C148.546 94.9943 149.408 92.6271 149.989 90.1962C150.587 87.6948 150.89 85.11 150.89 82.5136C150.89 80.2792 150.665 78.0462 150.221 75.8767C149.789 73.7626 149.143 71.6831 148.303 69.696C147.477 67.7448 146.456 65.8629 145.267 64.1025C144.088 62.3587 142.735 60.7189 141.245 59.2287C139.755 57.7384 138.115 56.3855 136.371 55.2074C134.611 54.0181 132.729 52.9966 130.778 52.1713C128.791 51.3308 126.711 50.6853 124.597 50.2527C122.428 49.8087 120.195 49.5836 117.96 49.5836C114.26 49.5836 110.629 50.1925 107.166 51.3934L106.874 51.4947L106.722 51.2252C103.905 46.2147 99.8058 42.0068 94.8691 39.0565C92.3725 37.5645 89.6903 36.4115 86.897 35.6295C84.0152 34.8228 81.0219 34.4138 78.0002 34.4138C73.9359 34.4138 69.9684 35.1453 66.2081 36.588C62.5754 37.9816 59.243 39.9948 56.3034 42.5716C53.3807 45.1335 50.9552 48.1564 49.0943 51.5562C47.1878 55.0395 45.9417 58.7995 45.3906 62.7317L45.3494 63.0261L45.0531 63.0493C41.7385 63.3087 38.5496 64.1814 35.5747 65.643C32.6841 67.0633 30.1029 68.9842 27.9029 71.3526C23.3821 76.219 20.8925 82.5594 20.8925 89.2059C20.8925 92.7482 21.5861 96.1842 22.9542 99.4187C23.6118 100.973 24.4256 102.473 25.3732 103.875C26.3119 105.265 27.3899 106.571 28.5773 107.759C29.7647 108.946 31.0713 110.024 32.4607 110.963C33.8633 111.91 35.3628 112.724 36.9174 113.382C40.1519 114.75 43.5879 115.444 47.1302 115.444H117.96H122.434ZM122.434 115.814H117.96H47.1302C32.4352 115.814 20.5225 103.901 20.5225 89.2059C20.5225 75.2195 31.3134 63.7536 45.0242 62.6804C47.2921 46.497 61.1917 34.0438 78.0002 34.0438C90.47 34.0438 101.339 40.8974 107.045 51.0438C110.465 49.8578 114.137 49.2136 117.96 49.2136C136.351 49.2136 151.26 64.1227 151.26 82.5136C151.26 87.8636 149.999 92.9185 147.757 97.3977C144.302 108.084 134.271 115.814 122.434 115.814Z" fill="white" fill-opacity="0.5"/>
</g>
<defs>
<filter id="filter0_f_480_2156" x="20.25" y="0.0644531" width="76.585" height="75.2216" filterUnits="userSpaceOnUse" color-interpolation-filters="sRGB">
<feFlood flood-opacity="0" result="BackgroundImageFix"/>
<feBlend mode="normal" in="SourceGraphic" in2="BackgroundImageFix" result="shape"/>
<feGaussianBlur stdDeviation="10" result="effect1_foregroundBlur_480_2156"/>
</filter>
<filter id="filter1_d_480_2156" x="0.522461" y="6.04382" width="190.737" height="141.77" filterUnits="userSpaceOnUse" color-interpolation-filters="sRGB">
<feFlood flood-opacity="0" result="BackgroundImageFix"/>
<feColorMatrix in="SourceAlpha" type="matrix" values="0 0 0 0 0 0 0 0 0 0 0 0 0 0 0 0 0 0 127 0" result="hardAlpha"/>
<feOffset dx="10" dy="2"/>
<feGaussianBlur stdDeviation="15"/>
<feColorMatrix type="matrix" values="0 0 0 0 0.501961 0 0 0 0 0.501961 0 0 0 0 0.501961 0 0 0 0.302 0"/>
<feBlend mode="normal" in2="BackgroundImageFix" result="effect1_dropShadow_480_2156"/>
<feBlend mode="normal" in="SourceGraphic" in2="effect1_dropShadow_480_2156" result="shape"/>
</filter>
<linearGradient id="paint0_linear_480_2156" x1="85.9007" y1="34.0448" x2="123.879" y2="125.865" gradientUnits="userSpaceOnUse">
<stop stop-color="white" stop-opacity="0.604"/>
<stop offset="1" stop-color="white" stop-opacity="0.2"/>
</linearGradient>
</defs>
</svg>
