<svg width="192" height="142" viewBox="0 0 192 142" fill="none" xmlns="http://www.w3.org/2000/svg">
<path d="M68.2432 114V133.469" stroke="#42A0F0" stroke-width="4" stroke-linecap="round"/>
<path d="M68.2041 118.759L71.557 115.298" stroke="#42A0F0" stroke-width="4" stroke-linecap="round"/>
<path d="M68.2041 118.759L64.7432 115.298" stroke="#42A0F0" stroke-width="4" stroke-linecap="round"/>
<path d="M68.2041 129.142L71.557 132.603" stroke="#42A0F0" stroke-width="4" stroke-linecap="round"/>
<path d="M68.2041 129.142L64.7432 132.603" stroke="#42A0F0" stroke-width="4" stroke-linecap="round"/>
<path d="M76.627 118.948L59.7666 128.682" stroke="#42A0F0" stroke-width="4" stroke-linecap="round"/>
<path d="M72.4851 121.354L77.1589 122.406" stroke="#42A0F0" stroke-width="4" stroke-linecap="round"/>
<path d="M72.5313 121.293L73.7061 116.566" stroke="#42A0F0" stroke-width="4" stroke-linecap="round"/>
<path d="M63.4482 126.485L62.2172 131.119" stroke="#42A0F0" stroke-width="4" stroke-linecap="round"/>
<path d="M63.4933 126.424L58.7655 125.28" stroke="#42A0F0" stroke-width="4" stroke-linecap="round"/>
<path d="M76.5332 128.682L59.6728 118.948" stroke="#42A0F0" stroke-width="4" stroke-linecap="round"/>
<path d="M72.4773 126.269L73.7083 130.903" stroke="#42A0F0" stroke-width="4" stroke-linecap="round"/>
<path d="M72.4324 126.207L77.1602 125.063" stroke="#42A0F0" stroke-width="4" stroke-linecap="round"/>
<path d="M63.4404 121.137L58.7667 122.19" stroke="#42A0F0" stroke-width="4" stroke-linecap="round"/>
<path d="M63.3944 121.077L62.2196 116.349" stroke="#42A0F0" stroke-width="4" stroke-linecap="round"/>
<path d="M30.2432 114V133.469" stroke="#42A0F0" stroke-width="4" stroke-linecap="round"/>
<path d="M30.2041 118.759L33.557 115.298" stroke="#42A0F0" stroke-width="4" stroke-linecap="round"/>
<path d="M30.2041 118.759L26.7432 115.298" stroke="#42A0F0" stroke-width="4" stroke-linecap="round"/>
<path d="M30.2041 129.142L33.557 132.603" stroke="#42A0F0" stroke-width="4" stroke-linecap="round"/>
<path d="M30.2041 129.142L26.7432 132.603" stroke="#42A0F0" stroke-width="4" stroke-linecap="round"/>
<path d="M38.627 118.948L21.7666 128.682" stroke="#42A0F0" stroke-width="4" stroke-linecap="round"/>
<path d="M34.4851 121.354L39.1589 122.406" stroke="#42A0F0" stroke-width="4" stroke-linecap="round"/>
<path d="M34.5313 121.293L35.7061 116.566" stroke="#42A0F0" stroke-width="4" stroke-linecap="round"/>
<path d="M25.4482 126.485L24.2172 131.119" stroke="#42A0F0" stroke-width="4" stroke-linecap="round"/>
<path d="M25.4933 126.424L20.7655 125.28" stroke="#42A0F0" stroke-width="4" stroke-linecap="round"/>
<path d="M38.5332 128.682L21.6728 118.948" stroke="#42A0F0" stroke-width="4" stroke-linecap="round"/>
<path d="M34.4773 126.269L35.7083 130.903" stroke="#42A0F0" stroke-width="4" stroke-linecap="round"/>
<path d="M34.4324 126.207L39.1602 125.063" stroke="#42A0F0" stroke-width="4" stroke-linecap="round"/>
<path d="M25.4404 121.137L20.7667 122.19" stroke="#42A0F0" stroke-width="4" stroke-linecap="round"/>
<path d="M25.3944 121.077L24.2196 116.349" stroke="#42A0F0" stroke-width="4" stroke-linecap="round"/>
<path d="M45.5928 85V104.469" stroke="#42A0F0" stroke-width="4" stroke-linecap="round"/>
<path d="M45.5537 89.759L48.9067 86.298" stroke="#42A0F0" stroke-width="4" stroke-linecap="round"/>
<path d="M45.5538 89.759L42.0928 86.298" stroke="#42A0F0" stroke-width="4" stroke-linecap="round"/>
<path d="M45.5537 100.142L48.9067 103.603" stroke="#42A0F0" stroke-width="4" stroke-linecap="round"/>
<path d="M45.5538 100.142L42.0928 103.603" stroke="#42A0F0" stroke-width="4" stroke-linecap="round"/>
<path d="M53.9766 89.9479L37.1162 99.6822" stroke="#42A0F0" stroke-width="4" stroke-linecap="round"/>
<path d="M49.8347 92.3538L54.5085 93.4064" stroke="#42A0F0" stroke-width="4" stroke-linecap="round"/>
<path d="M49.8809 92.2935L51.0557 87.5657" stroke="#42A0F0" stroke-width="4" stroke-linecap="round"/>
<path d="M40.7979 97.4851L39.5668 102.119" stroke="#42A0F0" stroke-width="4" stroke-linecap="round"/>
<path d="M40.8429 97.4238L36.1151 96.2796" stroke="#42A0F0" stroke-width="4" stroke-linecap="round"/>
<path d="M53.8828 99.6821L37.0225 89.9478" stroke="#42A0F0" stroke-width="4" stroke-linecap="round"/>
<path d="M49.8269 97.2687L51.0579 101.903" stroke="#42A0F0" stroke-width="4" stroke-linecap="round"/>
<path d="M49.782 97.2074L54.5098 96.0632" stroke="#42A0F0" stroke-width="4" stroke-linecap="round"/>
<path d="M40.79 92.1373L36.1163 93.1898" stroke="#42A0F0" stroke-width="4" stroke-linecap="round"/>
<path d="M40.744 92.077L39.5692 87.3492" stroke="#42A0F0" stroke-width="4" stroke-linecap="round"/>
<path d="M102.352 113.86C102.944 113.867 108.945 123.236 108.945 126.877C108.945 128.626 108.251 130.303 107.014 131.539C105.778 132.775 104.101 133.47 102.352 133.47C100.604 133.47 98.9271 132.775 97.6907 131.539C96.4543 130.303 95.7598 128.626 95.7598 126.877C95.7598 123.236 101.761 113.853 102.352 113.86Z" fill="#42A0F0"/>
<path d="M97.3257 129.341C97.9844 129.543 98.8217 128.714 99.1957 127.491C99.5697 126.268 99.3388 125.113 98.6801 124.911C98.0213 124.71 97.1841 125.538 96.8101 126.762C96.4361 127.985 96.6669 129.14 97.3257 129.341Z" fill="white"/>
<path d="M136.763 113.86C137.355 113.867 143.355 123.236 143.355 126.877C143.355 128.626 142.661 130.303 141.424 131.539C140.188 132.775 138.511 133.47 136.763 133.47C135.014 133.47 133.337 132.775 132.101 131.539C130.865 130.303 130.17 128.626 130.17 126.877C130.17 123.236 136.171 113.853 136.763 113.86Z" fill="#42A0F0"/>
<path d="M131.736 129.341C132.395 129.543 133.232 128.714 133.606 127.491C133.98 126.268 133.749 125.113 133.09 124.911C132.431 124.71 131.594 125.538 131.22 126.762C130.846 127.985 131.077 129.14 131.736 129.341Z" fill="white"/>
<path d="M85.2432 85V104.469" stroke="#42A0F0" stroke-width="4" stroke-linecap="round"/>
<path d="M85.2041 89.759L88.557 86.298" stroke="#42A0F0" stroke-width="4" stroke-linecap="round"/>
<path d="M85.2041 89.759L81.7432 86.298" stroke="#42A0F0" stroke-width="4" stroke-linecap="round"/>
<path d="M85.2041 100.142L88.557 103.603" stroke="#42A0F0" stroke-width="4" stroke-linecap="round"/>
<path d="M85.2041 100.142L81.7432 103.603" stroke="#42A0F0" stroke-width="4" stroke-linecap="round"/>
<path d="M93.627 89.9479L76.7666 99.6822" stroke="#42A0F0" stroke-width="4" stroke-linecap="round"/>
<path d="M89.4851 92.3538L94.1589 93.4064" stroke="#42A0F0" stroke-width="4" stroke-linecap="round"/>
<path d="M89.5313 92.2935L90.7061 87.5657" stroke="#42A0F0" stroke-width="4" stroke-linecap="round"/>
<path d="M80.4482 97.4851L79.2172 102.119" stroke="#42A0F0" stroke-width="4" stroke-linecap="round"/>
<path d="M80.4933 97.4238L75.7655 96.2796" stroke="#42A0F0" stroke-width="4" stroke-linecap="round"/>
<path d="M93.5332 99.6821L76.6728 89.9478" stroke="#42A0F0" stroke-width="4" stroke-linecap="round"/>
<path d="M89.4773 97.2687L90.7083 101.903" stroke="#42A0F0" stroke-width="4" stroke-linecap="round"/>
<path d="M89.4324 97.2074L94.1602 96.0632" stroke="#42A0F0" stroke-width="4" stroke-linecap="round"/>
<path d="M80.4404 92.1373L75.7667 93.1898" stroke="#42A0F0" stroke-width="4" stroke-linecap="round"/>
<path d="M80.3944 92.077L79.2196 87.3492" stroke="#42A0F0" stroke-width="4" stroke-linecap="round"/>
<path d="M121.593 85C122.185 85.0067 128.185 94.3762 128.185 98.0173C128.185 99.7658 127.491 101.443 126.254 102.679C125.018 103.915 123.341 104.61 121.593 104.61C119.844 104.61 118.167 103.915 116.931 102.679C115.695 101.443 115 99.7658 115 98.0173C115 94.3765 121.001 84.9933 121.593 85Z" fill="#42A0F0"/>
<path d="M116.566 100.481C117.225 100.683 118.062 99.8544 118.436 98.6311C118.81 97.4078 118.579 96.2528 117.92 96.0514C117.262 95.85 116.424 96.6785 116.05 97.9018C115.676 99.1251 115.907 100.28 116.566 100.481Z" fill="white"/>
<g filter="url(#filter0_d_480_2489)">
<path d="M117.787 109.77H46.9575C40.0864 109.765 33.4837 107.102 28.5317 102.338C23.5797 97.5752 20.6622 91.0809 20.39 84.2153C20.1179 77.3496 22.5122 70.6448 27.0717 65.5045C31.6312 60.3642 38.0023 57.187 44.8514 56.6379C45.8281 49.7411 48.9425 43.3241 53.7565 38.2896C58.5704 33.2551 64.8416 29.8566 71.6877 28.5721C78.5339 27.2876 85.6105 28.1818 91.9219 31.1289C98.2334 34.076 103.462 38.9277 106.872 45.0014C113.127 42.8362 119.885 42.5832 126.285 44.2747C132.684 45.9663 138.434 49.5256 142.802 54.4988C147.17 59.472 149.958 65.6336 150.81 72.1977C151.661 78.7617 150.538 85.4307 147.584 91.3539C145.85 96.7054 142.466 101.37 137.917 104.679C133.367 107.987 127.887 109.77 122.261 109.77H117.787Z" fill="url(#paint0_linear_480_2489)"/>
<path d="M122.261 109.4C125.117 109.4 127.926 108.944 130.608 108.044C133.202 107.175 135.637 105.905 137.846 104.272C140.029 102.657 141.943 100.723 143.535 98.5229C145.146 96.2955 146.39 93.8452 147.232 91.2401L147.241 91.2134L147.253 91.1883C148.373 88.9505 149.236 86.5833 149.817 84.1524C150.414 81.651 150.717 79.0662 150.717 76.4698C150.717 74.2353 150.492 72.0024 150.048 69.8329C149.616 67.7188 148.97 65.6393 148.13 63.6522C147.304 61.701 146.283 59.8191 145.094 58.0587C143.916 56.3149 142.563 54.6751 141.072 53.1849C139.582 51.6946 137.942 50.3416 136.199 49.1636C134.438 47.9742 132.556 46.9528 130.605 46.1275C128.618 45.287 126.538 44.6415 124.424 44.2088C122.255 43.7649 120.022 43.5398 117.787 43.5398C114.088 43.5398 110.456 44.1487 106.993 45.3496L106.701 45.4509L106.55 45.1814C103.732 40.1709 99.633 35.963 94.6963 33.0127C92.1997 31.5206 89.5175 30.3676 86.7241 29.5857C83.8424 28.779 80.8491 28.37 77.8274 28.37C73.763 28.37 69.7956 29.1015 66.0353 30.5441C62.4026 31.9378 59.0702 33.951 56.1305 36.5278C53.2078 39.0897 50.7824 42.1126 48.9215 45.5124C47.015 48.9957 45.7688 52.7557 45.2178 56.6879L45.1765 56.9823L44.8802 57.0054C41.5657 57.2649 38.3767 58.1376 35.4019 59.5992C32.5113 61.0194 29.9301 62.9404 27.73 65.3087C23.2093 70.1751 20.7196 76.5156 20.7196 83.1621C20.7196 86.7043 21.4133 90.1404 22.7814 93.3749C23.4389 94.9295 24.2528 96.4289 25.2004 97.8316C26.1391 99.221 27.2171 100.528 28.4045 101.715C29.5919 102.902 30.8984 103.98 32.2878 104.919C33.6905 105.867 35.1899 106.681 36.7445 107.338C39.979 108.706 43.4151 109.4 46.9573 109.4H117.787H122.261ZM122.261 109.77H117.787H46.9573C32.2623 109.77 20.3496 97.8571 20.3496 83.1621C20.3496 69.1757 31.1405 57.7098 44.8514 56.6366C47.1193 40.4532 61.0189 28 77.8274 28C90.2972 28 101.166 34.8536 106.872 45C110.292 43.814 113.964 43.1698 117.787 43.1698C136.178 43.1698 151.087 58.0789 151.087 76.4698C151.087 81.8197 149.826 86.8746 147.584 91.3539C144.129 102.04 134.098 109.77 122.261 109.77Z" fill="white" fill-opacity="0.5"/>
</g>
<defs>
<filter id="filter0_d_480_2489" x="0.349609" y="0" width="190.737" height="141.77" filterUnits="userSpaceOnUse" color-interpolation-filters="sRGB">
<feFlood flood-opacity="0" result="BackgroundImageFix"/>
<feColorMatrix in="SourceAlpha" type="matrix" values="0 0 0 0 0 0 0 0 0 0 0 0 0 0 0 0 0 0 127 0" result="hardAlpha"/>
<feOffset dx="10" dy="2"/>
<feGaussianBlur stdDeviation="15"/>
<feColorMatrix type="matrix" values="0 0 0 0 0.501961 0 0 0 0 0.501961 0 0 0 0 0.501961 0 0 0 0.302 0"/>
<feBlend mode="normal" in2="BackgroundImageFix" result="effect1_dropShadow_480_2489"/>
<feBlend mode="normal" in="SourceGraphic" in2="effect1_dropShadow_480_2489" result="shape"/>
</filter>
<linearGradient id="paint0_linear_480_2489" x1="85.7278" y1="28.0009" x2="123.706" y2="119.821" gradientUnits="userSpaceOnUse">
<stop stop-color="white" stop-opacity="0.604"/>
<stop offset="1" stop-color="white" stop-opacity="0.2"/>
</linearGradient>
</defs>
</svg>
