<svg width="195" height="148" viewBox="0 0 195 148" fill="none" xmlns="http://www.w3.org/2000/svg">
<path d="M53.1647 92.0924C73.2927 92.0924 89.6097 75.6926 89.6097 55.4624C89.6097 35.2322 73.2927 18.8324 53.1647 18.8324C33.0367 18.8324 16.7197 35.2322 16.7197 55.4624C16.7197 75.6926 33.0367 92.0924 53.1647 92.0924Z" fill="#FA9E42"/>
<g filter="url(#filter0_f_480_2995)">
<path d="M50.5313 50.2532C62.6438 43.8197 69.4186 32.8726 65.6632 25.8022C61.9078 18.7318 49.0443 18.2154 36.9317 24.649C24.8192 31.0825 18.0444 42.0296 21.7998 49.1C25.5552 56.1704 38.4187 56.6867 50.5313 50.2532Z" fill="#F8E36F"/>
</g>
<path d="M53.0429 119.907C53.6349 119.913 59.6355 129.283 59.6355 132.924C59.6355 134.673 58.9409 136.349 57.7046 137.586C56.4682 138.822 54.7913 139.517 53.0429 139.517C51.2944 139.517 49.6175 138.822 48.3811 137.586C47.1448 136.349 46.4502 134.673 46.4502 132.924C46.4502 129.283 52.4512 119.9 53.0429 119.907Z" fill="#42A0F0"/>
<path d="M48.0161 135.388C48.6749 135.59 49.5121 134.761 49.8861 133.538C50.2601 132.315 50.0293 131.16 49.3705 130.958C48.7118 130.757 47.8745 131.585 47.5005 132.808C47.1265 134.032 47.3574 135.187 48.0161 135.388Z" fill="white"/>
<path d="M87.453 119.907C88.045 119.913 94.0457 129.283 94.0457 132.924C94.0457 134.673 93.3511 136.349 92.1147 137.586C90.8784 138.822 89.2015 139.517 87.453 139.517C85.7045 139.517 84.0277 138.822 82.7913 137.586C81.5549 136.349 80.8604 134.673 80.8604 132.924C80.8604 129.283 86.8614 119.9 87.453 119.907Z" fill="#42A0F0"/>
<path d="M82.4263 135.388C83.085 135.59 83.9222 134.761 84.2962 133.538C84.6702 132.315 84.4394 131.16 83.7807 130.958C83.1219 130.757 82.2847 131.585 81.9107 132.808C81.5367 134.032 81.7675 135.187 82.4263 135.388Z" fill="white"/>
<path d="M121.863 119.907C122.455 119.913 128.456 129.283 128.456 132.924C128.456 134.673 127.761 136.349 126.525 137.586C125.289 138.822 123.612 139.517 121.863 139.517C120.115 139.517 118.438 138.822 117.201 137.586C115.965 136.349 115.271 134.673 115.271 132.924C115.271 129.283 121.272 119.9 121.863 119.907Z" fill="#42A0F0"/>
<path d="M116.836 135.388C117.495 135.59 118.332 134.761 118.706 133.538C119.08 132.315 118.85 131.16 118.191 130.958C117.532 130.757 116.695 131.585 116.321 132.808C115.947 134.032 116.178 135.187 116.836 135.388Z" fill="white"/>
<path d="M70.4325 91.0468C71.0245 91.0534 77.0252 100.423 77.0252 104.064C77.0252 105.813 76.3306 107.489 75.0942 108.726C73.8579 109.962 72.181 110.657 70.4325 110.657C68.684 110.657 67.0072 109.962 65.7708 108.726C64.5344 107.489 63.8398 105.813 63.8398 104.064C63.8398 100.423 69.8409 91.0401 70.4325 91.0468Z" fill="#42A0F0"/>
<path d="M65.4058 106.528C66.0645 106.73 66.9017 105.901 67.2757 104.678C67.6497 103.455 67.4189 102.3 66.7602 102.098C66.1014 101.897 65.2642 102.725 64.8902 103.949C64.5162 105.172 64.747 106.327 65.4058 106.528Z" fill="white"/>
<path d="M106.693 91.0468C107.285 91.0534 113.286 100.423 113.286 104.064C113.286 105.813 112.591 107.489 111.355 108.726C110.119 109.962 108.442 110.657 106.693 110.657C104.945 110.657 103.268 109.962 102.032 108.726C100.795 107.489 100.101 105.813 100.101 104.064C100.101 100.423 106.102 91.0401 106.693 91.0468Z" fill="#42A0F0"/>
<path d="M101.667 106.528C102.325 106.73 103.162 105.901 103.536 104.678C103.91 103.455 103.68 102.3 103.021 102.098C102.362 101.897 101.525 102.725 101.151 103.949C100.777 105.172 101.008 106.327 101.667 106.528Z" fill="white"/>
<g filter="url(#filter1_d_480_2995)">
<path d="M121.56 115.837H50.7299C43.8589 115.832 37.2562 113.169 32.3042 108.405C27.3521 103.642 24.4346 97.1478 24.1625 90.2822C23.8904 83.4165 26.2846 76.7117 30.8441 71.5714C35.4036 66.4311 41.7748 63.2539 48.6239 62.7048C49.6006 55.808 52.715 49.391 57.5289 44.3565C62.3428 39.322 68.614 35.9235 75.4602 34.639C82.3063 33.3545 89.3829 34.2487 95.6944 37.1958C102.006 40.1429 107.234 44.9946 110.645 51.0683C116.9 48.9031 123.658 48.6501 130.057 50.3416C136.456 52.0332 142.207 55.5925 146.575 60.5657C150.943 65.5389 153.73 71.7005 154.582 78.2645C155.434 84.8286 154.311 91.4976 151.357 97.4208C149.623 102.772 146.239 107.437 141.689 110.746C137.14 114.054 131.659 115.836 126.034 115.837H121.56Z" fill="url(#paint0_linear_480_2995)"/>
<path d="M126.034 115.467C128.89 115.467 131.698 115.011 134.38 114.111C136.974 113.241 139.409 111.972 141.618 110.339C143.802 108.724 145.716 106.79 147.307 104.59C148.918 102.362 150.162 99.912 151.004 97.3069L151.013 97.2802L151.026 97.2551C152.146 95.0173 153.008 92.65 153.589 90.2191C154.187 87.7178 154.49 85.133 154.49 82.5366C154.49 80.3021 154.265 78.0691 153.821 75.8997C153.388 73.7856 152.743 71.7061 151.902 69.7189C151.077 67.7678 150.055 65.8858 148.866 64.1254C147.688 62.3817 146.335 60.7419 144.845 59.2516C143.355 57.7614 141.715 56.4084 139.971 55.2303C138.211 54.041 136.329 53.0195 134.378 52.1943C132.39 51.3538 130.311 50.7082 128.197 50.2756C126.027 49.8317 123.794 49.6066 121.56 49.6066C117.86 49.6066 114.228 50.2155 110.766 51.4163L110.474 51.5177L110.322 51.2481C107.504 46.2376 103.405 42.0298 98.4687 39.0795C95.9721 37.5874 93.2899 36.4344 90.4966 35.6525C87.6148 34.8458 84.6215 34.4368 81.5999 34.4368C77.5355 34.4368 73.568 35.1683 69.8077 36.6109C66.175 38.0046 62.8426 40.0178 59.903 42.5945C56.9803 45.1565 54.5548 48.1794 52.694 51.5792C50.7874 55.0625 49.5413 58.8225 48.9902 62.7547L48.949 63.049L48.6527 63.0722C45.3382 63.3317 42.1492 64.2043 39.1743 65.666C36.2837 67.0862 33.7025 69.0072 31.5025 71.3755C26.9817 76.2419 24.4921 82.5824 24.4921 89.2289C24.4921 92.7711 25.1857 96.2072 26.5538 99.4417C27.2114 100.996 28.0253 102.496 28.9729 103.898C29.9115 105.288 30.9895 106.594 32.1769 107.782C33.3643 108.969 34.6709 110.047 36.0603 110.986C37.463 111.933 38.9624 112.747 40.517 113.405C43.7515 114.773 47.1875 115.467 50.7298 115.467H121.56H126.034ZM126.034 115.837H121.56H50.7298C36.0348 115.837 24.1221 103.924 24.1221 89.2289C24.1221 75.2425 34.913 63.7766 48.6238 62.7033C50.8917 46.52 64.7913 34.0668 81.5999 34.0668C94.0696 34.0668 104.938 40.9203 110.645 51.0668C114.064 49.8808 117.737 49.2366 121.56 49.2366C139.951 49.2366 154.86 64.1457 154.86 82.5366C154.86 87.8865 153.598 92.9414 151.357 97.4207C147.902 108.107 137.87 115.837 126.034 115.837Z" fill="white" fill-opacity="0.5"/>
</g>
<defs>
<filter id="filter0_f_480_2995" x="0.763672" y="0.142212" width="85.9355" height="74.6177" filterUnits="userSpaceOnUse" color-interpolation-filters="sRGB">
<feFlood flood-opacity="0" result="BackgroundImageFix"/>
<feBlend mode="normal" in="SourceGraphic" in2="BackgroundImageFix" result="shape"/>
<feGaussianBlur stdDeviation="10" result="effect1_foregroundBlur_480_2995"/>
</filter>
<filter id="filter1_d_480_2995" x="4.12207" y="6.06677" width="190.737" height="141.77" filterUnits="userSpaceOnUse" color-interpolation-filters="sRGB">
<feFlood flood-opacity="0" result="BackgroundImageFix"/>
<feColorMatrix in="SourceAlpha" type="matrix" values="0 0 0 0 0 0 0 0 0 0 0 0 0 0 0 0 0 0 127 0" result="hardAlpha"/>
<feOffset dx="10" dy="2"/>
<feGaussianBlur stdDeviation="15"/>
<feColorMatrix type="matrix" values="0 0 0 0 0.501961 0 0 0 0 0.501961 0 0 0 0 0.501961 0 0 0 0.302 0"/>
<feBlend mode="normal" in2="BackgroundImageFix" result="effect1_dropShadow_480_2995"/>
<feBlend mode="normal" in="SourceGraphic" in2="effect1_dropShadow_480_2995" result="shape"/>
</filter>
<linearGradient id="paint0_linear_480_2995" x1="89.5003" y1="34.0677" x2="127.478" y2="125.888" gradientUnits="userSpaceOnUse">
<stop stop-color="white" stop-opacity="0.604"/>
<stop offset="1" stop-color="white" stop-opacity="0.2"/>
</linearGradient>
</defs>
</svg>
