<svg width="195" height="149" viewBox="0 0 195 149" fill="none" xmlns="http://www.w3.org/2000/svg">
<path d="M53.1647 92.0924C73.2927 92.0924 89.6097 75.6926 89.6097 55.4624C89.6097 35.2322 73.2927 18.8324 53.1647 18.8324C33.0367 18.8324 16.7197 35.2322 16.7197 55.4624C16.7197 75.6926 33.0367 92.0924 53.1647 92.0924Z" fill="#FA9E42"/>
<g filter="url(#filter0_f_480_3323)">
<path d="M50.5313 50.2532C62.6438 43.8197 69.4186 32.8726 65.6632 25.8022C61.9078 18.7318 49.0443 18.2154 36.9317 24.649C24.8192 31.0825 18.0444 42.0296 21.7998 49.1C25.5552 56.1704 38.4187 56.6867 50.5313 50.2532Z" fill="#F8E36F"/>
</g>
<path d="M124.214 121.713V141.181" stroke="#42A0F0" stroke-width="4" stroke-linecap="round"/>
<path d="M124.175 126.472L127.528 123.011" stroke="#42A0F0" stroke-width="4" stroke-linecap="round"/>
<path d="M124.175 126.472L120.714 123.011" stroke="#42A0F0" stroke-width="4" stroke-linecap="round"/>
<path d="M124.175 136.855L127.528 140.316" stroke="#42A0F0" stroke-width="4" stroke-linecap="round"/>
<path d="M124.175 136.855L120.714 140.316" stroke="#42A0F0" stroke-width="4" stroke-linecap="round"/>
<path d="M132.598 126.661L115.737 136.395" stroke="#42A0F0" stroke-width="4" stroke-linecap="round"/>
<path d="M128.456 129.066L133.13 130.119" stroke="#42A0F0" stroke-width="4" stroke-linecap="round"/>
<path d="M128.502 129.006L129.677 124.278" stroke="#42A0F0" stroke-width="4" stroke-linecap="round"/>
<path d="M119.419 134.198L118.188 138.832" stroke="#42A0F0" stroke-width="4" stroke-linecap="round"/>
<path d="M119.464 134.136L114.736 132.992" stroke="#42A0F0" stroke-width="4" stroke-linecap="round"/>
<path d="M132.504 136.395L115.644 126.66" stroke="#42A0F0" stroke-width="4" stroke-linecap="round"/>
<path d="M128.448 133.981L129.679 138.616" stroke="#42A0F0" stroke-width="4" stroke-linecap="round"/>
<path d="M128.403 133.92L133.131 132.776" stroke="#42A0F0" stroke-width="4" stroke-linecap="round"/>
<path d="M119.411 128.85L114.737 129.902" stroke="#42A0F0" stroke-width="4" stroke-linecap="round"/>
<path d="M119.365 128.79L118.19 124.062" stroke="#42A0F0" stroke-width="4" stroke-linecap="round"/>
<path d="M89.7432 121.713V141.181" stroke="#42A0F0" stroke-width="4" stroke-linecap="round"/>
<path d="M89.7041 126.472L93.057 123.011" stroke="#42A0F0" stroke-width="4" stroke-linecap="round"/>
<path d="M89.7041 126.472L86.2432 123.011" stroke="#42A0F0" stroke-width="4" stroke-linecap="round"/>
<path d="M89.7041 136.855L93.057 140.316" stroke="#42A0F0" stroke-width="4" stroke-linecap="round"/>
<path d="M89.7041 136.855L86.2432 140.316" stroke="#42A0F0" stroke-width="4" stroke-linecap="round"/>
<path d="M98.127 126.661L81.2666 136.395" stroke="#42A0F0" stroke-width="4" stroke-linecap="round"/>
<path d="M93.9851 129.066L98.6589 130.119" stroke="#42A0F0" stroke-width="4" stroke-linecap="round"/>
<path d="M94.0313 129.006L95.2061 124.278" stroke="#42A0F0" stroke-width="4" stroke-linecap="round"/>
<path d="M84.9482 134.198L83.7172 138.832" stroke="#42A0F0" stroke-width="4" stroke-linecap="round"/>
<path d="M84.9933 134.136L80.2655 132.992" stroke="#42A0F0" stroke-width="4" stroke-linecap="round"/>
<path d="M98.0332 136.395L81.1728 126.66" stroke="#42A0F0" stroke-width="4" stroke-linecap="round"/>
<path d="M93.9773 133.981L95.2083 138.616" stroke="#42A0F0" stroke-width="4" stroke-linecap="round"/>
<path d="M93.9324 133.92L98.6602 132.776" stroke="#42A0F0" stroke-width="4" stroke-linecap="round"/>
<path d="M84.9404 128.85L80.2667 129.902" stroke="#42A0F0" stroke-width="4" stroke-linecap="round"/>
<path d="M84.8944 128.79L83.7196 124.062" stroke="#42A0F0" stroke-width="4" stroke-linecap="round"/>
<path d="M55.333 121.713V141.181" stroke="#42A0F0" stroke-width="4" stroke-linecap="round"/>
<path d="M55.2939 126.472L58.6469 123.011" stroke="#42A0F0" stroke-width="4" stroke-linecap="round"/>
<path d="M55.294 126.472L51.833 123.011" stroke="#42A0F0" stroke-width="4" stroke-linecap="round"/>
<path d="M55.2939 136.855L58.6469 140.316" stroke="#42A0F0" stroke-width="4" stroke-linecap="round"/>
<path d="M55.294 136.855L51.833 140.316" stroke="#42A0F0" stroke-width="4" stroke-linecap="round"/>
<path d="M63.7168 126.661L46.8564 136.395" stroke="#42A0F0" stroke-width="4" stroke-linecap="round"/>
<path d="M59.575 129.066L64.2487 130.119" stroke="#42A0F0" stroke-width="4" stroke-linecap="round"/>
<path d="M59.6211 129.006L60.7959 124.278" stroke="#42A0F0" stroke-width="4" stroke-linecap="round"/>
<path d="M50.5381 134.198L49.3071 138.832" stroke="#42A0F0" stroke-width="4" stroke-linecap="round"/>
<path d="M50.5831 134.136L45.8554 132.992" stroke="#42A0F0" stroke-width="4" stroke-linecap="round"/>
<path d="M63.623 136.395L46.7627 126.66" stroke="#42A0F0" stroke-width="4" stroke-linecap="round"/>
<path d="M59.5671 133.981L60.7982 138.616" stroke="#42A0F0" stroke-width="4" stroke-linecap="round"/>
<path d="M59.5222 133.92L64.25 132.776" stroke="#42A0F0" stroke-width="4" stroke-linecap="round"/>
<path d="M50.5303 128.85L45.8565 129.902" stroke="#42A0F0" stroke-width="4" stroke-linecap="round"/>
<path d="M50.4842 128.79L49.3095 124.062" stroke="#42A0F0" stroke-width="4" stroke-linecap="round"/>
<path d="M71.9834 92.4827V111.951" stroke="#42A0F0" stroke-width="4" stroke-linecap="round"/>
<path d="M71.9443 97.2416L75.2973 93.7806" stroke="#42A0F0" stroke-width="4" stroke-linecap="round"/>
<path d="M71.9444 97.2416L68.4834 93.7806" stroke="#42A0F0" stroke-width="4" stroke-linecap="round"/>
<path d="M71.9443 107.625L75.2973 111.086" stroke="#42A0F0" stroke-width="4" stroke-linecap="round"/>
<path d="M71.9444 107.625L68.4834 111.086" stroke="#42A0F0" stroke-width="4" stroke-linecap="round"/>
<path d="M80.3672 97.4305L63.5068 107.165" stroke="#42A0F0" stroke-width="4" stroke-linecap="round"/>
<path d="M76.2253 99.8365L80.8991 100.889" stroke="#42A0F0" stroke-width="4" stroke-linecap="round"/>
<path d="M76.2715 99.7761L77.4463 95.0483" stroke="#42A0F0" stroke-width="4" stroke-linecap="round"/>
<path d="M67.1885 104.968L65.9575 109.602" stroke="#42A0F0" stroke-width="4" stroke-linecap="round"/>
<path d="M67.2335 104.906L62.5057 103.762" stroke="#42A0F0" stroke-width="4" stroke-linecap="round"/>
<path d="M80.2734 107.165L63.4131 97.4305" stroke="#42A0F0" stroke-width="4" stroke-linecap="round"/>
<path d="M76.2175 104.751L77.4485 109.386" stroke="#42A0F0" stroke-width="4" stroke-linecap="round"/>
<path d="M76.1726 104.69L80.9004 103.546" stroke="#42A0F0" stroke-width="4" stroke-linecap="round"/>
<path d="M67.1807 99.62L62.5069 100.673" stroke="#42A0F0" stroke-width="4" stroke-linecap="round"/>
<path d="M67.1346 99.5597L65.9598 94.8319" stroke="#42A0F0" stroke-width="4" stroke-linecap="round"/>
<path d="M110.093 92.4827V111.951" stroke="#42A0F0" stroke-width="4" stroke-linecap="round"/>
<path d="M110.054 97.2416L113.407 93.7806" stroke="#42A0F0" stroke-width="4" stroke-linecap="round"/>
<path d="M110.054 97.2416L106.593 93.7806" stroke="#42A0F0" stroke-width="4" stroke-linecap="round"/>
<path d="M110.054 107.625L113.407 111.086" stroke="#42A0F0" stroke-width="4" stroke-linecap="round"/>
<path d="M110.054 107.625L106.593 111.086" stroke="#42A0F0" stroke-width="4" stroke-linecap="round"/>
<path d="M118.477 97.4305L101.616 107.165" stroke="#42A0F0" stroke-width="4" stroke-linecap="round"/>
<path d="M114.335 99.8365L119.008 100.889" stroke="#42A0F0" stroke-width="4" stroke-linecap="round"/>
<path d="M114.381 99.7761L115.556 95.0483" stroke="#42A0F0" stroke-width="4" stroke-linecap="round"/>
<path d="M105.298 104.968L104.067 109.602" stroke="#42A0F0" stroke-width="4" stroke-linecap="round"/>
<path d="M105.343 104.906L100.615 103.762" stroke="#42A0F0" stroke-width="4" stroke-linecap="round"/>
<path d="M118.383 107.165L101.522 97.4305" stroke="#42A0F0" stroke-width="4" stroke-linecap="round"/>
<path d="M114.327 104.751L115.558 109.386" stroke="#42A0F0" stroke-width="4" stroke-linecap="round"/>
<path d="M114.282 104.69L119.01 103.546" stroke="#42A0F0" stroke-width="4" stroke-linecap="round"/>
<path d="M105.29 99.62L100.616 100.673" stroke="#42A0F0" stroke-width="4" stroke-linecap="round"/>
<path d="M105.244 99.5597L104.069 94.8319" stroke="#42A0F0" stroke-width="4" stroke-linecap="round"/>
<g filter="url(#filter1_d_480_3323)">
<path d="M121.688 116.947H50.8578C43.9868 116.942 37.3841 114.279 32.4321 109.515C27.48 104.752 24.5626 98.2578 24.2904 91.3921C24.0183 84.5265 26.4126 77.8217 30.9721 72.6814C35.5315 67.5411 41.9027 64.3639 48.7518 63.8148C49.7285 56.918 52.8429 50.501 57.6568 45.4665C62.4708 40.432 68.7419 37.0335 75.5881 35.749C82.4343 34.4645 89.5109 35.3587 95.8223 38.3058C102.134 41.2529 107.362 46.1046 110.773 52.1783C117.027 50.0131 123.785 49.7601 130.185 51.4515C136.584 53.1429 142.334 56.7021 146.702 61.6751C151.07 66.6481 153.858 72.8094 154.71 79.3733C155.562 85.9372 154.439 92.6061 151.485 98.5293C149.752 103.881 146.368 108.546 141.818 111.855C137.268 115.164 131.787 116.947 126.162 116.947H121.688Z" fill="url(#paint0_linear_480_3323)"/>
<path d="M126.162 116.577C129.018 116.577 131.827 116.121 134.509 115.221C137.103 114.351 139.538 113.082 141.747 111.448C143.931 109.833 145.845 107.899 147.436 105.699C149.047 103.471 150.291 101.021 151.133 98.4154L151.142 98.3887L151.154 98.3636C152.274 96.126 153.136 93.759 153.717 91.3282C154.315 88.8268 154.618 86.2423 154.618 83.6466C154.618 81.4121 154.393 79.1791 153.949 77.0097C153.516 74.8956 152.871 72.816 152.03 70.8289C151.205 68.8778 150.183 66.9958 148.994 65.2354C147.816 63.4916 146.463 61.8519 144.973 60.3616C143.483 58.8714 141.843 57.5184 140.099 56.3403C138.339 55.151 136.457 54.1295 134.506 53.3043C132.518 52.4637 130.439 51.8182 128.325 51.3856C126.155 50.9417 123.922 50.7166 121.688 50.7166C117.988 50.7166 114.356 51.3255 110.894 52.5263L110.602 52.6277L110.45 52.3581C107.632 47.3477 103.533 43.1398 98.5967 40.1895C96.1001 38.6974 93.4179 37.5444 90.6245 36.7625C87.7428 35.9558 84.7495 35.5468 81.7278 35.5468C77.6634 35.5468 73.696 36.2782 69.9356 37.7209C66.303 39.1146 62.9705 41.1277 60.0309 43.7045C57.1082 46.2665 54.6828 49.2894 52.8219 52.6892C50.9153 56.1725 49.6692 59.9324 49.1182 63.8647L49.0769 64.159L48.7806 64.1822C45.4661 64.4416 42.2771 65.3143 39.3023 66.776C36.4117 68.1962 33.8305 70.1172 31.6304 72.4855C27.1097 77.3519 24.62 83.6924 24.62 90.3389C24.62 93.8811 25.3137 97.3172 26.6817 100.552C27.3393 102.106 28.1532 103.606 29.1008 105.008C30.0395 106.398 31.1175 107.704 32.3049 108.892C33.4923 110.079 34.7988 111.157 36.1882 112.096C37.5909 113.043 39.0903 113.857 40.6449 114.515C43.8794 115.883 47.3155 116.577 50.8577 116.577H121.688H126.162ZM126.162 116.947H121.688H50.8577C36.1627 116.947 24.25 105.034 24.25 90.3389C24.25 76.3525 35.0409 64.8865 48.7518 63.8133C51.0197 47.63 64.9193 35.1768 81.7278 35.1768C94.1976 35.1768 105.066 42.0304 110.772 52.1768C114.192 50.9908 117.865 50.3466 121.688 50.3466C140.079 50.3466 154.988 65.2557 154.988 83.6466C154.988 88.9954 153.726 94.0506 151.485 98.5291C148.031 109.217 137.999 116.947 126.162 116.947Z" fill="white" fill-opacity="0.5"/>
</g>
<defs>
<filter id="filter0_f_480_3323" x="0.763672" y="0.142212" width="85.9355" height="74.6177" filterUnits="userSpaceOnUse" color-interpolation-filters="sRGB">
<feFlood flood-opacity="0" result="BackgroundImageFix"/>
<feBlend mode="normal" in="SourceGraphic" in2="BackgroundImageFix" result="shape"/>
<feGaussianBlur stdDeviation="10" result="effect1_foregroundBlur_480_3323"/>
</filter>
<filter id="filter1_d_480_3323" x="4.25" y="7.17676" width="190.737" height="141.77" filterUnits="userSpaceOnUse" color-interpolation-filters="sRGB">
<feFlood flood-opacity="0" result="BackgroundImageFix"/>
<feColorMatrix in="SourceAlpha" type="matrix" values="0 0 0 0 0 0 0 0 0 0 0 0 0 0 0 0 0 0 127 0" result="hardAlpha"/>
<feOffset dx="10" dy="2"/>
<feGaussianBlur stdDeviation="15"/>
<feColorMatrix type="matrix" values="0 0 0 0 0.501961 0 0 0 0 0.501961 0 0 0 0 0.501961 0 0 0 0.302 0"/>
<feBlend mode="normal" in2="BackgroundImageFix" result="effect1_dropShadow_480_3323"/>
<feBlend mode="normal" in="SourceGraphic" in2="effect1_dropShadow_480_3323" result="shape"/>
</filter>
<linearGradient id="paint0_linear_480_3323" x1="89.6282" y1="35.1777" x2="127.606" y2="126.998" gradientUnits="userSpaceOnUse">
<stop stop-color="white" stop-opacity="0.604"/>
<stop offset="1" stop-color="white" stop-opacity="0.2"/>
</linearGradient>
</defs>
</svg>
