<svg width="191" height="142" viewBox="0 0 191 142" fill="none" xmlns="http://www.w3.org/2000/svg">
<path d="M119.964 114.536V134.005" stroke="#42A0F0" stroke-width="4" stroke-linecap="round"/>
<path d="M119.925 119.295L123.278 115.834" stroke="#42A0F0" stroke-width="4" stroke-linecap="round"/>
<path d="M119.925 119.295L116.464 115.834" stroke="#42A0F0" stroke-width="4" stroke-linecap="round"/>
<path d="M119.925 129.678L123.278 133.139" stroke="#42A0F0" stroke-width="4" stroke-linecap="round"/>
<path d="M119.925 129.678L116.464 133.139" stroke="#42A0F0" stroke-width="4" stroke-linecap="round"/>
<path d="M128.348 119.484L111.487 129.218" stroke="#42A0F0" stroke-width="4" stroke-linecap="round"/>
<path d="M124.206 121.89L128.88 122.942" stroke="#42A0F0" stroke-width="4" stroke-linecap="round"/>
<path d="M124.252 121.829L125.427 117.102" stroke="#42A0F0" stroke-width="4" stroke-linecap="round"/>
<path d="M115.169 127.021L113.938 131.655" stroke="#42A0F0" stroke-width="4" stroke-linecap="round"/>
<path d="M115.214 126.96L110.486 125.816" stroke="#42A0F0" stroke-width="4" stroke-linecap="round"/>
<path d="M128.254 129.218L111.394 119.484" stroke="#42A0F0" stroke-width="4" stroke-linecap="round"/>
<path d="M124.198 126.805L125.429 131.439" stroke="#42A0F0" stroke-width="4" stroke-linecap="round"/>
<path d="M124.153 126.743L128.881 125.599" stroke="#42A0F0" stroke-width="4" stroke-linecap="round"/>
<path d="M115.161 121.673L110.487 122.726" stroke="#42A0F0" stroke-width="4" stroke-linecap="round"/>
<path d="M115.115 121.613L113.94 116.885" stroke="#42A0F0" stroke-width="4" stroke-linecap="round"/>
<path d="M85.4932 114.536V134.005" stroke="#42A0F0" stroke-width="4" stroke-linecap="round"/>
<path d="M85.4541 119.295L88.807 115.834" stroke="#42A0F0" stroke-width="4" stroke-linecap="round"/>
<path d="M85.4541 119.295L81.9932 115.834" stroke="#42A0F0" stroke-width="4" stroke-linecap="round"/>
<path d="M85.4541 129.678L88.807 133.139" stroke="#42A0F0" stroke-width="4" stroke-linecap="round"/>
<path d="M85.4541 129.678L81.9932 133.139" stroke="#42A0F0" stroke-width="4" stroke-linecap="round"/>
<path d="M93.877 119.484L77.0166 129.218" stroke="#42A0F0" stroke-width="4" stroke-linecap="round"/>
<path d="M89.7351 121.89L94.4089 122.942" stroke="#42A0F0" stroke-width="4" stroke-linecap="round"/>
<path d="M89.7813 121.829L90.9561 117.102" stroke="#42A0F0" stroke-width="4" stroke-linecap="round"/>
<path d="M80.6982 127.021L79.4672 131.655" stroke="#42A0F0" stroke-width="4" stroke-linecap="round"/>
<path d="M80.7433 126.96L76.0155 125.816" stroke="#42A0F0" stroke-width="4" stroke-linecap="round"/>
<path d="M93.7832 129.218L76.9228 119.484" stroke="#42A0F0" stroke-width="4" stroke-linecap="round"/>
<path d="M89.7273 126.805L90.9583 131.439" stroke="#42A0F0" stroke-width="4" stroke-linecap="round"/>
<path d="M89.6824 126.743L94.4102 125.599" stroke="#42A0F0" stroke-width="4" stroke-linecap="round"/>
<path d="M80.6904 121.673L76.0167 122.726" stroke="#42A0F0" stroke-width="4" stroke-linecap="round"/>
<path d="M80.6444 121.613L79.4696 116.885" stroke="#42A0F0" stroke-width="4" stroke-linecap="round"/>
<path d="M51.083 114.536V134.005" stroke="#42A0F0" stroke-width="4" stroke-linecap="round"/>
<path d="M51.0439 119.295L54.3969 115.834" stroke="#42A0F0" stroke-width="4" stroke-linecap="round"/>
<path d="M51.044 119.295L47.583 115.834" stroke="#42A0F0" stroke-width="4" stroke-linecap="round"/>
<path d="M51.0439 129.678L54.3969 133.139" stroke="#42A0F0" stroke-width="4" stroke-linecap="round"/>
<path d="M51.044 129.678L47.583 133.139" stroke="#42A0F0" stroke-width="4" stroke-linecap="round"/>
<path d="M59.4668 119.484L42.6064 129.218" stroke="#42A0F0" stroke-width="4" stroke-linecap="round"/>
<path d="M55.325 121.89L59.9987 122.942" stroke="#42A0F0" stroke-width="4" stroke-linecap="round"/>
<path d="M55.3711 121.829L56.5459 117.102" stroke="#42A0F0" stroke-width="4" stroke-linecap="round"/>
<path d="M46.2881 127.021L45.0571 131.655" stroke="#42A0F0" stroke-width="4" stroke-linecap="round"/>
<path d="M46.3331 126.96L41.6054 125.816" stroke="#42A0F0" stroke-width="4" stroke-linecap="round"/>
<path d="M59.373 129.218L42.5127 119.484" stroke="#42A0F0" stroke-width="4" stroke-linecap="round"/>
<path d="M55.3171 126.805L56.5482 131.439" stroke="#42A0F0" stroke-width="4" stroke-linecap="round"/>
<path d="M55.2722 126.743L60 125.599" stroke="#42A0F0" stroke-width="4" stroke-linecap="round"/>
<path d="M46.2803 121.673L41.6065 122.726" stroke="#42A0F0" stroke-width="4" stroke-linecap="round"/>
<path d="M46.2342 121.613L45.0595 116.885" stroke="#42A0F0" stroke-width="4" stroke-linecap="round"/>
<path d="M67.7334 85.306V104.775" stroke="#42A0F0" stroke-width="4" stroke-linecap="round"/>
<path d="M67.6943 90.065L71.0473 86.604" stroke="#42A0F0" stroke-width="4" stroke-linecap="round"/>
<path d="M67.6944 90.065L64.2334 86.604" stroke="#42A0F0" stroke-width="4" stroke-linecap="round"/>
<path d="M67.6943 100.448L71.0473 103.909" stroke="#42A0F0" stroke-width="4" stroke-linecap="round"/>
<path d="M67.6944 100.448L64.2334 103.909" stroke="#42A0F0" stroke-width="4" stroke-linecap="round"/>
<path d="M76.1172 90.2539L59.2568 99.9882" stroke="#42A0F0" stroke-width="4" stroke-linecap="round"/>
<path d="M71.9753 92.6599L76.6491 93.7124" stroke="#42A0F0" stroke-width="4" stroke-linecap="round"/>
<path d="M72.0215 92.5995L73.1963 87.8717" stroke="#42A0F0" stroke-width="4" stroke-linecap="round"/>
<path d="M62.9385 97.7911L61.7075 102.425" stroke="#42A0F0" stroke-width="4" stroke-linecap="round"/>
<path d="M62.9835 97.7298L58.2557 96.5856" stroke="#42A0F0" stroke-width="4" stroke-linecap="round"/>
<path d="M76.0234 99.9882L59.1631 90.2538" stroke="#42A0F0" stroke-width="4" stroke-linecap="round"/>
<path d="M71.9675 97.5747L73.1985 102.209" stroke="#42A0F0" stroke-width="4" stroke-linecap="round"/>
<path d="M71.9226 97.5135L76.6504 96.3693" stroke="#42A0F0" stroke-width="4" stroke-linecap="round"/>
<path d="M62.9307 92.4434L58.2569 93.4959" stroke="#42A0F0" stroke-width="4" stroke-linecap="round"/>
<path d="M62.8846 92.383L61.7098 87.6552" stroke="#42A0F0" stroke-width="4" stroke-linecap="round"/>
<path d="M105.843 85.306V104.775" stroke="#42A0F0" stroke-width="4" stroke-linecap="round"/>
<path d="M105.804 90.065L109.157 86.604" stroke="#42A0F0" stroke-width="4" stroke-linecap="round"/>
<path d="M105.804 90.065L102.343 86.604" stroke="#42A0F0" stroke-width="4" stroke-linecap="round"/>
<path d="M105.804 100.448L109.157 103.909" stroke="#42A0F0" stroke-width="4" stroke-linecap="round"/>
<path d="M105.804 100.448L102.343 103.909" stroke="#42A0F0" stroke-width="4" stroke-linecap="round"/>
<path d="M114.227 90.2539L97.3662 99.9882" stroke="#42A0F0" stroke-width="4" stroke-linecap="round"/>
<path d="M110.085 92.6599L114.758 93.7124" stroke="#42A0F0" stroke-width="4" stroke-linecap="round"/>
<path d="M110.131 92.5995L111.306 87.8717" stroke="#42A0F0" stroke-width="4" stroke-linecap="round"/>
<path d="M101.048 97.7911L99.8168 102.425" stroke="#42A0F0" stroke-width="4" stroke-linecap="round"/>
<path d="M101.093 97.7298L96.3651 96.5856" stroke="#42A0F0" stroke-width="4" stroke-linecap="round"/>
<path d="M114.133 99.9882L97.2725 90.2538" stroke="#42A0F0" stroke-width="4" stroke-linecap="round"/>
<path d="M110.077 97.5747L111.308 102.209" stroke="#42A0F0" stroke-width="4" stroke-linecap="round"/>
<path d="M110.032 97.5135L114.76 96.3693" stroke="#42A0F0" stroke-width="4" stroke-linecap="round"/>
<path d="M101.04 92.4434L96.3663 93.4959" stroke="#42A0F0" stroke-width="4" stroke-linecap="round"/>
<path d="M100.994 92.383L99.8192 87.6552" stroke="#42A0F0" stroke-width="4" stroke-linecap="round"/>
<g filter="url(#filter0_d_480_3191)">
<path d="M117.438 109.77H46.6078C39.7368 109.765 33.1341 107.102 28.1821 102.339C23.23 97.5753 20.3126 91.081 20.0404 84.2154C19.7683 77.3497 22.1626 70.6449 26.7221 65.5046C31.2815 60.3644 37.6527 57.1871 44.5018 56.638C45.4785 49.7412 48.5929 43.3242 53.4068 38.2897C58.2208 33.2553 64.4919 29.8567 71.3381 28.5722C78.1843 27.2877 85.2609 28.1819 91.5723 31.129C97.8838 34.0762 103.112 38.9278 106.523 45.0015C112.777 42.8364 119.535 42.5833 125.935 44.2747C132.334 45.9662 138.084 49.5253 142.452 54.4983C146.82 59.4713 149.608 65.6327 150.46 72.1965C151.312 78.7604 150.189 85.4293 147.235 91.3526C145.502 96.7045 142.118 101.37 137.568 104.679C133.018 107.987 127.537 109.77 121.912 109.77H117.438Z" fill="url(#paint0_linear_480_3191)"/>
<path d="M121.912 109.4C124.768 109.4 127.577 108.944 130.259 108.044C132.853 107.174 135.288 105.905 137.497 104.271C139.681 102.657 141.595 100.722 143.186 98.5221C144.797 96.2945 146.041 93.844 146.883 91.2386L146.892 91.2119L146.904 91.1868C148.024 88.9493 148.886 86.5822 149.467 84.1514C150.065 81.65 150.368 79.0656 150.368 76.4698C150.368 74.2353 150.143 72.0024 149.699 69.8329C149.266 67.7188 148.621 65.6393 147.78 63.6522C146.955 61.701 145.933 59.8191 144.744 58.0587C143.566 56.3149 142.213 54.6751 140.723 53.1849C139.233 51.6946 137.593 50.3416 135.849 49.1636C134.089 47.9742 132.207 46.9528 130.256 46.1275C128.268 45.287 126.189 44.6415 124.075 44.2088C121.905 43.7649 119.672 43.5398 117.438 43.5398C113.738 43.5398 110.106 44.1487 106.644 45.3496L106.352 45.4509L106.2 45.1814C103.382 40.1709 99.2833 35.963 94.3467 33.0127C91.8501 31.5207 89.1679 30.3676 86.3745 29.5857C83.4928 28.779 80.4995 28.37 77.4778 28.37C73.4134 28.37 69.446 29.1015 65.6856 30.5441C62.053 31.9378 58.7205 33.951 55.7809 36.5278C52.8582 39.0897 50.4328 42.1126 48.5719 45.5124C46.6653 48.9957 45.4192 52.7557 44.8682 56.6879L44.8269 56.9823L44.5306 57.0054C41.2161 57.2649 38.0271 58.1376 35.0523 59.5992C32.1617 61.0194 29.5805 62.9404 27.3804 65.3087C22.8597 70.1751 20.37 76.5156 20.37 83.1621C20.37 86.7043 21.0637 90.1404 22.4317 93.3749C23.0893 94.9295 23.9032 96.4289 24.8508 97.8316C25.7895 99.221 26.8675 100.528 28.0549 101.715C29.2423 102.902 30.5488 103.98 31.9382 104.919C33.3409 105.867 34.8403 106.681 36.3949 107.338C39.6294 108.706 43.0655 109.4 46.6077 109.4H117.438H121.912ZM121.912 109.77H117.438H46.6077C31.9127 109.77 20 97.8571 20 83.1621C20 69.1757 30.7909 57.7098 44.5018 56.6366C46.7697 40.4532 60.6693 28 77.4778 28C89.9476 28 100.816 34.8536 106.522 45C109.942 43.8141 113.615 43.1698 117.438 43.1698C135.829 43.1698 150.738 58.0789 150.738 76.4698C150.738 81.8186 149.476 86.8738 147.235 91.3524C143.781 102.04 133.749 109.77 121.912 109.77Z" fill="white" fill-opacity="0.5"/>
</g>
<defs>
<filter id="filter0_d_480_3191" x="0" y="0" width="190.737" height="141.77" filterUnits="userSpaceOnUse" color-interpolation-filters="sRGB">
<feFlood flood-opacity="0" result="BackgroundImageFix"/>
<feColorMatrix in="SourceAlpha" type="matrix" values="0 0 0 0 0 0 0 0 0 0 0 0 0 0 0 0 0 0 127 0" result="hardAlpha"/>
<feOffset dx="10" dy="2"/>
<feGaussianBlur stdDeviation="15"/>
<feColorMatrix type="matrix" values="0 0 0 0 0.501961 0 0 0 0 0.501961 0 0 0 0 0.501961 0 0 0 0.302 0"/>
<feBlend mode="normal" in2="BackgroundImageFix" result="effect1_dropShadow_480_3191"/>
<feBlend mode="normal" in="SourceGraphic" in2="effect1_dropShadow_480_3191" result="shape"/>
</filter>
<linearGradient id="paint0_linear_480_3191" x1="85.3782" y1="28.001" x2="123.356" y2="119.822" gradientUnits="userSpaceOnUse">
<stop stop-color="white" stop-opacity="0.604"/>
<stop offset="1" stop-color="white" stop-opacity="0.2"/>
</linearGradient>
</defs>
</svg>
