<svg width="98" height="63" viewBox="0 0 98 63" fill="none" xmlns="http://www.w3.org/2000/svg">
<path d="M92.6602 21.6433C92.6602 21.6433 87.5952 25.0265 83.6366 24.9148C78.6745 24.7712 77.8247 21.8231 73.2263 21.6433C68.4137 21.6788 67.9223 24.7372 62.7057 24.9148C58.0319 24.8734 56.0505 21.6988 51.5965 21.6433C47.1424 21.5878 42.3916 24.9148 42.3916 24.9148" stroke="white" stroke-width="9" stroke-linecap="round"/>
<path d="M77.8603 5.001C77.8603 5.001 72.0247 9.89832 67.4633 9.737C61.7461 9.52906 60.7663 5.26 55.469 5.001C49.9238 5.05243 49.3581 9.478 43.3475 9.737C37.9625 9.67743 35.6811 5.08166 30.5477 5.001C25.4143 4.92034 19.9424 9.737 19.9424 9.737" stroke="white" stroke-width="9" stroke-linecap="round"/>
<path d="M58.99 36.8211C58.99 36.8211 53.551 41.7184 49.2986 41.5571C43.9706 41.3491 43.0563 37.0801 38.118 36.8211C32.9491 36.8725 32.42 41.2981 26.8185 41.5571C21.7991 41.4968 19.6723 36.9014 14.886 36.8211C10.0997 36.7408 5 41.5571 5 41.5571" stroke="white" stroke-width="9" stroke-linecap="round"/>
<path d="M90.0706 53.471C90.0706 53.471 84.4488 58.3683 80.0555 58.2066C74.5476 57.9987 73.6045 53.7296 68.5011 53.4706C63.1594 53.522 62.614 57.9476 56.8239 58.2066C51.6358 58.1467 49.4383 53.5513 44.4948 53.471C39.5512 53.3907 34.2783 58.207 34.2783 58.207" stroke="white" stroke-width="9" stroke-linecap="round"/>
</svg>
