<svg width="199" height="148" viewBox="0 0 199 148" fill="none" xmlns="http://www.w3.org/2000/svg">
<path d="M53.1647 92.0923C73.2927 92.0923 89.6097 75.6925 89.6097 55.4623C89.6097 35.2321 73.2927 18.8323 53.1647 18.8323C33.0367 18.8323 16.7197 35.2321 16.7197 55.4623C16.7197 75.6925 33.0367 92.0923 53.1647 92.0923Z" fill="#FA9E42"/>
<g filter="url(#filter0_f_480_2147)">
<path d="M50.5313 50.2531C62.6438 43.8196 69.4186 32.8725 65.6632 25.8021C61.9078 18.7316 49.0443 18.2153 36.9317 24.6488C24.8192 31.0823 18.0444 42.0294 21.7998 49.0999C25.5552 56.1703 38.4187 56.6866 50.5313 50.2531Z" fill="#F8E36F"/>
</g>
<g filter="url(#filter1_d_480_2147)">
<path d="M124.888 115.772H54.058C47.187 115.767 40.5843 113.104 35.6323 108.341C30.6802 103.578 27.7628 97.0834 27.4906 90.2177C27.2185 83.352 29.6128 76.6472 34.1723 71.507C38.7317 66.3667 45.1029 63.1894 51.952 62.6404C52.9287 55.7436 56.0431 49.3265 60.857 44.2921C65.671 39.2576 71.9421 35.859 78.7883 34.5745C85.6345 33.29 92.7111 34.1842 99.0225 37.1314C105.334 40.0785 110.563 44.9302 113.973 51.0039C120.228 48.8386 126.986 48.5856 133.385 50.2772C139.784 51.9687 145.535 55.5281 149.903 60.5013C154.271 65.4745 157.058 71.636 157.91 78.2001C158.762 84.7641 157.639 91.4331 154.685 97.3564C152.951 102.708 149.567 107.373 145.017 110.681C140.468 113.99 134.987 115.772 129.362 115.772H124.888Z" fill="url(#paint0_linear_480_2147)"/>
<path d="M129.362 115.402C132.218 115.402 135.026 114.946 137.709 114.047C140.302 113.177 142.738 111.908 144.946 110.274C147.13 108.659 149.044 106.725 150.635 104.525C152.246 102.298 153.49 99.8475 154.333 97.2424L154.341 97.2157L154.354 97.1906C155.474 94.9528 156.336 92.5856 156.917 90.1547C157.515 87.6533 157.818 85.0685 157.818 82.4721C157.818 80.2377 157.593 78.0047 157.149 75.8352C156.716 73.7211 156.071 71.6416 155.23 69.6545C154.405 67.7033 153.384 65.8214 152.194 64.061C151.016 62.3172 149.663 60.6774 148.173 59.1872C146.683 57.6969 145.043 56.344 143.299 55.1659C141.539 53.9766 139.657 52.9551 137.706 52.1298C135.718 51.2893 133.639 50.6438 131.525 50.2112C129.355 49.7672 127.122 49.5421 124.888 49.5421C121.188 49.5421 117.556 50.151 114.094 51.3519L113.802 51.4532L113.65 51.1837C110.832 46.1732 106.734 41.9653 101.797 39.015C99.3003 37.523 96.618 36.3699 93.8247 35.588C90.943 34.7813 87.9497 34.3723 84.928 34.3723C80.8636 34.3723 76.8962 35.1038 73.1358 36.5465C69.5032 37.9401 66.1707 39.9533 63.2311 42.5301C60.3084 45.092 57.8829 48.1149 56.0221 51.5147C54.1155 54.998 52.8694 58.758 52.3184 62.6902L52.2771 62.9846L51.9808 63.0078C48.6663 63.2672 45.4773 64.1399 42.5025 65.6015C39.6119 67.0218 37.0307 68.9427 34.8306 71.311C30.3099 76.1775 27.8202 82.5179 27.8202 89.1644C27.8202 92.7067 28.5139 96.1427 29.8819 99.3772C30.5395 100.932 31.3534 102.431 32.301 103.834C33.2397 105.223 34.3177 106.53 35.5051 107.717C36.6925 108.905 37.999 109.983 39.3884 110.921C40.7911 111.869 42.2905 112.683 43.8451 113.34C47.0796 114.708 50.5157 115.402 54.0579 115.402H124.888H129.362ZM129.362 115.772H124.888H54.0579C39.3629 115.772 27.4502 103.859 27.4502 89.1644C27.4502 75.178 38.2411 63.7121 51.9519 62.6389C54.2198 46.4555 68.1195 34.0023 84.928 34.0023C97.3978 34.0023 108.266 40.8559 113.973 51.0023C117.392 49.8163 121.065 49.1721 124.888 49.1721C143.279 49.1721 158.188 64.0812 158.188 82.4721C158.188 87.822 156.927 92.877 154.685 97.3562C151.23 108.043 141.198 115.772 129.362 115.772Z" fill="white" fill-opacity="0.5"/>
</g>
<defs>
<filter id="filter0_f_480_2147" x="0.763672" y="0.14209" width="85.9355" height="74.6177" filterUnits="userSpaceOnUse" color-interpolation-filters="sRGB">
<feFlood flood-opacity="0" result="BackgroundImageFix"/>
<feBlend mode="normal" in="SourceGraphic" in2="BackgroundImageFix" result="shape"/>
<feGaussianBlur stdDeviation="10" result="effect1_foregroundBlur_480_2147"/>
</filter>
<filter id="filter1_d_480_2147" x="7.4502" y="6.00232" width="190.737" height="141.77" filterUnits="userSpaceOnUse" color-interpolation-filters="sRGB">
<feFlood flood-opacity="0" result="BackgroundImageFix"/>
<feColorMatrix in="SourceAlpha" type="matrix" values="0 0 0 0 0 0 0 0 0 0 0 0 0 0 0 0 0 0 127 0" result="hardAlpha"/>
<feOffset dx="10" dy="2"/>
<feGaussianBlur stdDeviation="15"/>
<feColorMatrix type="matrix" values="0 0 0 0 0.501961 0 0 0 0 0.501961 0 0 0 0 0.501961 0 0 0 0.302 0"/>
<feBlend mode="normal" in2="BackgroundImageFix" result="effect1_dropShadow_480_2147"/>
<feBlend mode="normal" in="SourceGraphic" in2="effect1_dropShadow_480_2147" result="shape"/>
</filter>
<linearGradient id="paint0_linear_480_2147" x1="92.8284" y1="34.0033" x2="130.806" y2="125.824" gradientUnits="userSpaceOnUse">
<stop stop-color="white" stop-opacity="0.604"/>
<stop offset="1" stop-color="white" stop-opacity="0.2"/>
</linearGradient>
</defs>
</svg>
