<svg width="199" height="160" viewBox="0 0 199 160" fill="none" xmlns="http://www.w3.org/2000/svg">
<path d="M53.1647 92.0923C73.2927 92.0923 89.6097 75.6925 89.6097 55.4623C89.6097 35.2321 73.2927 18.8323 53.1647 18.8323C33.0367 18.8323 16.7197 35.2321 16.7197 55.4623C16.7197 75.6925 33.0367 92.0923 53.1647 92.0923Z" fill="#FA9E42"/>
<g filter="url(#filter0_f_480_2740)">
<path d="M50.5313 50.2531C62.6438 43.8196 69.4186 32.8725 65.6632 25.8021C61.9078 18.7316 49.0443 18.2153 36.9317 24.6488C24.8192 31.0823 18.0444 42.0294 21.7998 49.0999C25.5552 56.1703 38.4187 56.6866 50.5313 50.2531Z" fill="#F8E36F"/>
</g>
<g filter="url(#filter1_d_480_2740)">
<path d="M124.888 127.772H54.058C47.187 127.767 40.5843 125.104 35.6323 120.341C30.6802 115.578 27.7628 109.083 27.4906 102.218C27.2185 95.352 29.6128 88.6472 34.1723 83.507C38.7317 78.3667 45.1029 75.1894 51.952 74.6404C52.9287 67.7436 56.0431 61.3265 60.857 56.2921C65.671 51.2576 71.9421 47.859 78.7883 46.5745C85.6345 45.29 92.7111 46.1842 99.0225 49.1314C105.334 52.0785 110.563 56.9302 113.973 63.0039C120.228 60.8386 126.986 60.5856 133.385 62.2772C139.784 63.9687 145.535 67.5281 149.903 72.5013C154.271 77.4745 157.058 83.636 157.91 90.2001C158.762 96.7641 157.639 103.433 154.685 109.356C152.951 114.708 149.567 119.373 145.017 122.681C140.468 125.99 134.987 127.772 129.362 127.772H124.888Z" fill="url(#paint0_linear_480_2740)"/>
<path d="M129.362 127.402C132.218 127.402 135.026 126.946 137.709 126.047C140.302 125.177 142.738 123.908 144.946 122.274C147.13 120.659 149.044 118.725 150.635 116.525C152.246 114.298 153.49 111.848 154.333 109.242L154.341 109.216L154.354 109.191C155.474 106.953 156.336 104.586 156.917 102.155C157.515 99.6533 157.818 97.0685 157.818 94.4721C157.818 92.2377 157.593 90.0047 157.149 87.8352C156.716 85.7211 156.071 83.6416 155.23 81.6545C154.405 79.7033 153.384 77.8214 152.194 76.061C151.016 74.3172 149.663 72.6774 148.173 71.1872C146.683 69.6969 145.043 68.344 143.299 67.1659C141.539 65.9766 139.657 64.9551 137.706 64.1298C135.718 63.2893 133.639 62.6438 131.525 62.2112C129.355 61.7672 127.122 61.5421 124.888 61.5421C121.188 61.5421 117.556 62.151 114.094 63.3519L113.802 63.4532L113.65 63.1837C110.832 58.1732 106.734 53.9653 101.797 51.015C99.3003 49.523 96.618 48.3699 93.8247 47.588C90.943 46.7813 87.9497 46.3723 84.928 46.3723C80.8636 46.3723 76.8962 47.1038 73.1358 48.5465C69.5032 49.9401 66.1707 51.9533 63.2311 54.5301C60.3084 57.092 57.8829 60.1149 56.0221 63.5147C54.1155 66.998 52.8694 70.758 52.3184 74.6902L52.2771 74.9846L51.9808 75.0078C48.6663 75.2672 45.4773 76.1399 42.5025 77.6015C39.6119 79.0218 37.0307 80.9427 34.8306 83.311C30.3099 88.1775 27.8202 94.5179 27.8202 101.164C27.8202 104.707 28.5139 108.143 29.8819 111.377C30.5395 112.932 31.3534 114.431 32.301 115.834C33.2397 117.223 34.3177 118.53 35.5051 119.717C36.6925 120.905 37.999 121.983 39.3884 122.921C40.7911 123.869 42.2905 124.683 43.8451 125.34C47.0796 126.708 50.5157 127.402 54.0579 127.402H124.888H129.362ZM129.362 127.772H124.888H54.0579C39.3629 127.772 27.4502 115.859 27.4502 101.164C27.4502 87.178 38.2411 75.7121 51.9519 74.6389C54.2198 58.4555 68.1195 46.0023 84.928 46.0023C97.3978 46.0023 108.266 52.8559 113.973 63.0023C117.392 61.8163 121.065 61.1721 124.888 61.1721C143.279 61.1721 158.188 76.0812 158.188 94.4721C158.188 99.822 156.927 104.877 154.685 109.356C151.23 120.043 141.198 127.772 129.362 127.772Z" fill="white" fill-opacity="0.5"/>
</g>
<path d="M79.2432 132V151.469" stroke="#42A0F0" stroke-width="4" stroke-linecap="round"/>
<path d="M79.2041 136.759L82.557 133.298" stroke="#42A0F0" stroke-width="4" stroke-linecap="round"/>
<path d="M79.2041 136.759L75.7432 133.298" stroke="#42A0F0" stroke-width="4" stroke-linecap="round"/>
<path d="M79.2041 147.142L82.557 150.603" stroke="#42A0F0" stroke-width="4" stroke-linecap="round"/>
<path d="M79.2041 147.142L75.7432 150.603" stroke="#42A0F0" stroke-width="4" stroke-linecap="round"/>
<path d="M87.627 136.948L70.7666 146.682" stroke="#42A0F0" stroke-width="4" stroke-linecap="round"/>
<path d="M83.4851 139.354L88.1589 140.406" stroke="#42A0F0" stroke-width="4" stroke-linecap="round"/>
<path d="M83.5313 139.293L84.7061 134.566" stroke="#42A0F0" stroke-width="4" stroke-linecap="round"/>
<path d="M74.4482 144.485L73.2172 149.119" stroke="#42A0F0" stroke-width="4" stroke-linecap="round"/>
<path d="M74.4933 144.424L69.7655 143.28" stroke="#42A0F0" stroke-width="4" stroke-linecap="round"/>
<path d="M87.5332 146.682L70.6728 136.948" stroke="#42A0F0" stroke-width="4" stroke-linecap="round"/>
<path d="M83.4773 144.269L84.7083 148.903" stroke="#42A0F0" stroke-width="4" stroke-linecap="round"/>
<path d="M83.4324 144.207L88.1602 143.063" stroke="#42A0F0" stroke-width="4" stroke-linecap="round"/>
<path d="M74.4404 139.137L69.7667 140.19" stroke="#42A0F0" stroke-width="4" stroke-linecap="round"/>
<path d="M74.3944 139.077L73.2196 134.349" stroke="#42A0F0" stroke-width="4" stroke-linecap="round"/>
<path d="M41.2432 132V151.469" stroke="#42A0F0" stroke-width="4" stroke-linecap="round"/>
<path d="M41.2041 136.759L44.557 133.298" stroke="#42A0F0" stroke-width="4" stroke-linecap="round"/>
<path d="M41.2041 136.759L37.7432 133.298" stroke="#42A0F0" stroke-width="4" stroke-linecap="round"/>
<path d="M41.2041 147.142L44.557 150.603" stroke="#42A0F0" stroke-width="4" stroke-linecap="round"/>
<path d="M41.2041 147.142L37.7432 150.603" stroke="#42A0F0" stroke-width="4" stroke-linecap="round"/>
<path d="M49.627 136.948L32.7666 146.682" stroke="#42A0F0" stroke-width="4" stroke-linecap="round"/>
<path d="M45.4851 139.354L50.1589 140.406" stroke="#42A0F0" stroke-width="4" stroke-linecap="round"/>
<path d="M45.5313 139.293L46.7061 134.566" stroke="#42A0F0" stroke-width="4" stroke-linecap="round"/>
<path d="M36.4482 144.485L35.2172 149.119" stroke="#42A0F0" stroke-width="4" stroke-linecap="round"/>
<path d="M36.4933 144.424L31.7655 143.28" stroke="#42A0F0" stroke-width="4" stroke-linecap="round"/>
<path d="M49.5332 146.682L32.6728 136.948" stroke="#42A0F0" stroke-width="4" stroke-linecap="round"/>
<path d="M45.4773 144.269L46.7083 148.903" stroke="#42A0F0" stroke-width="4" stroke-linecap="round"/>
<path d="M45.4324 144.207L50.1602 143.063" stroke="#42A0F0" stroke-width="4" stroke-linecap="round"/>
<path d="M36.4404 139.137L31.7667 140.19" stroke="#42A0F0" stroke-width="4" stroke-linecap="round"/>
<path d="M36.3944 139.077L35.2196 134.349" stroke="#42A0F0" stroke-width="4" stroke-linecap="round"/>
<path d="M56.5928 103V122.469" stroke="#42A0F0" stroke-width="4" stroke-linecap="round"/>
<path d="M56.5537 107.759L59.9067 104.298" stroke="#42A0F0" stroke-width="4" stroke-linecap="round"/>
<path d="M56.5538 107.759L53.0928 104.298" stroke="#42A0F0" stroke-width="4" stroke-linecap="round"/>
<path d="M56.5537 118.142L59.9067 121.603" stroke="#42A0F0" stroke-width="4" stroke-linecap="round"/>
<path d="M56.5538 118.142L53.0928 121.603" stroke="#42A0F0" stroke-width="4" stroke-linecap="round"/>
<path d="M64.9766 107.948L48.1162 117.682" stroke="#42A0F0" stroke-width="4" stroke-linecap="round"/>
<path d="M60.8347 110.354L65.5085 111.406" stroke="#42A0F0" stroke-width="4" stroke-linecap="round"/>
<path d="M60.8809 110.293L62.0557 105.566" stroke="#42A0F0" stroke-width="4" stroke-linecap="round"/>
<path d="M51.7979 115.485L50.5668 120.119" stroke="#42A0F0" stroke-width="4" stroke-linecap="round"/>
<path d="M51.8429 115.424L47.1151 114.28" stroke="#42A0F0" stroke-width="4" stroke-linecap="round"/>
<path d="M64.8828 117.682L48.0225 107.948" stroke="#42A0F0" stroke-width="4" stroke-linecap="round"/>
<path d="M60.8269 115.269L62.0579 119.903" stroke="#42A0F0" stroke-width="4" stroke-linecap="round"/>
<path d="M60.782 115.207L65.5098 114.063" stroke="#42A0F0" stroke-width="4" stroke-linecap="round"/>
<path d="M51.79 110.137L47.1163 111.19" stroke="#42A0F0" stroke-width="4" stroke-linecap="round"/>
<path d="M51.744 110.077L50.5692 105.349" stroke="#42A0F0" stroke-width="4" stroke-linecap="round"/>
<path d="M113.352 131.86C113.944 131.867 119.945 141.236 119.945 144.877C119.945 146.626 119.251 148.303 118.014 149.539C116.778 150.775 115.101 151.47 113.352 151.47C111.604 151.47 109.927 150.775 108.691 149.539C107.454 148.303 106.76 146.626 106.76 144.877C106.76 141.236 112.761 131.853 113.352 131.86Z" fill="#42A0F0"/>
<path d="M108.326 147.341C108.984 147.543 109.822 146.714 110.196 145.491C110.57 144.268 110.339 143.113 109.68 142.911C109.021 142.71 108.184 143.538 107.81 144.762C107.436 145.985 107.667 147.14 108.326 147.341Z" fill="white"/>
<path d="M147.763 131.86C148.355 131.867 154.355 141.236 154.355 144.877C154.355 146.626 153.661 148.303 152.424 149.539C151.188 150.775 149.511 151.47 147.763 151.47C146.014 151.47 144.337 150.775 143.101 149.539C141.865 148.303 141.17 146.626 141.17 144.877C141.17 141.236 147.171 131.853 147.763 131.86Z" fill="#42A0F0"/>
<path d="M142.736 147.341C143.395 147.543 144.232 146.714 144.606 145.491C144.98 144.268 144.749 143.113 144.09 142.911C143.431 142.71 142.594 143.538 142.22 144.762C141.846 145.985 142.077 147.14 142.736 147.341Z" fill="white"/>
<path d="M96.2432 103V122.469" stroke="#42A0F0" stroke-width="4" stroke-linecap="round"/>
<path d="M96.2041 107.759L99.557 104.298" stroke="#42A0F0" stroke-width="4" stroke-linecap="round"/>
<path d="M96.2041 107.759L92.7432 104.298" stroke="#42A0F0" stroke-width="4" stroke-linecap="round"/>
<path d="M96.2041 118.142L99.557 121.603" stroke="#42A0F0" stroke-width="4" stroke-linecap="round"/>
<path d="M96.2041 118.142L92.7432 121.603" stroke="#42A0F0" stroke-width="4" stroke-linecap="round"/>
<path d="M104.627 107.948L87.7666 117.682" stroke="#42A0F0" stroke-width="4" stroke-linecap="round"/>
<path d="M100.485 110.354L105.159 111.406" stroke="#42A0F0" stroke-width="4" stroke-linecap="round"/>
<path d="M100.531 110.293L101.706 105.566" stroke="#42A0F0" stroke-width="4" stroke-linecap="round"/>
<path d="M91.4482 115.485L90.2172 120.119" stroke="#42A0F0" stroke-width="4" stroke-linecap="round"/>
<path d="M91.4933 115.424L86.7655 114.28" stroke="#42A0F0" stroke-width="4" stroke-linecap="round"/>
<path d="M104.533 117.682L87.6728 107.948" stroke="#42A0F0" stroke-width="4" stroke-linecap="round"/>
<path d="M100.477 115.269L101.708 119.903" stroke="#42A0F0" stroke-width="4" stroke-linecap="round"/>
<path d="M100.432 115.207L105.16 114.063" stroke="#42A0F0" stroke-width="4" stroke-linecap="round"/>
<path d="M91.4404 110.137L86.7667 111.19" stroke="#42A0F0" stroke-width="4" stroke-linecap="round"/>
<path d="M91.3944 110.077L90.2196 105.349" stroke="#42A0F0" stroke-width="4" stroke-linecap="round"/>
<path d="M132.593 103C133.185 103.007 139.185 112.376 139.185 116.017C139.185 117.766 138.491 119.443 137.254 120.679C136.018 121.915 134.341 122.61 132.593 122.61C130.844 122.61 129.167 121.915 127.931 120.679C126.695 119.443 126 117.766 126 116.017C126 112.377 132.001 102.993 132.593 103Z" fill="#42A0F0"/>
<path d="M127.566 118.481C128.225 118.683 129.062 117.854 129.436 116.631C129.81 115.408 129.579 114.253 128.92 114.051C128.262 113.85 127.424 114.678 127.05 115.902C126.676 117.125 126.907 118.28 127.566 118.481Z" fill="white"/>
<defs>
<filter id="filter0_f_480_2740" x="0.763672" y="0.14209" width="85.9355" height="74.6177" filterUnits="userSpaceOnUse" color-interpolation-filters="sRGB">
<feFlood flood-opacity="0" result="BackgroundImageFix"/>
<feBlend mode="normal" in="SourceGraphic" in2="BackgroundImageFix" result="shape"/>
<feGaussianBlur stdDeviation="10" result="effect1_foregroundBlur_480_2740"/>
</filter>
<filter id="filter1_d_480_2740" x="7.4502" y="18.0023" width="190.737" height="141.77" filterUnits="userSpaceOnUse" color-interpolation-filters="sRGB">
<feFlood flood-opacity="0" result="BackgroundImageFix"/>
<feColorMatrix in="SourceAlpha" type="matrix" values="0 0 0 0 0 0 0 0 0 0 0 0 0 0 0 0 0 0 127 0" result="hardAlpha"/>
<feOffset dx="10" dy="2"/>
<feGaussianBlur stdDeviation="15"/>
<feColorMatrix type="matrix" values="0 0 0 0 0.501961 0 0 0 0 0.501961 0 0 0 0 0.501961 0 0 0 0.302 0"/>
<feBlend mode="normal" in2="BackgroundImageFix" result="effect1_dropShadow_480_2740"/>
<feBlend mode="normal" in="SourceGraphic" in2="effect1_dropShadow_480_2740" result="shape"/>
</filter>
<linearGradient id="paint0_linear_480_2740" x1="92.8284" y1="46.0033" x2="130.806" y2="137.824" gradientUnits="userSpaceOnUse">
<stop stop-color="white" stop-opacity="0.604"/>
<stop offset="1" stop-color="white" stop-opacity="0.2"/>
</linearGradient>
</defs>
</svg>
