<svg width="191" height="142" viewBox="0 0 191 142" fill="none" xmlns="http://www.w3.org/2000/svg">
<path d="M48.9208 113.84C49.5128 113.847 55.5134 123.216 55.5134 126.857C55.5134 128.606 54.8189 130.283 53.5825 131.519C52.3461 132.755 50.6693 133.45 48.9208 133.45C47.1723 133.45 45.4954 132.755 44.2591 131.519C43.0227 130.283 42.3281 128.606 42.3281 126.857C42.3281 123.217 48.3292 113.833 48.9208 113.84Z" fill="#42A0F0"/>
<path d="M43.8941 129.321C44.5528 129.523 45.39 128.694 45.764 127.471C46.138 126.248 45.9072 125.093 45.2484 124.891C44.5897 124.69 43.7525 125.518 43.3785 126.742C43.0045 127.965 43.2353 129.12 43.8941 129.321Z" fill="white"/>
<path d="M83.3309 113.84C83.9229 113.847 89.9236 123.216 89.9236 126.857C89.9236 128.606 89.229 130.283 87.9927 131.519C86.7563 132.755 85.0794 133.45 83.3309 133.45C81.5825 133.45 79.9056 132.755 78.6692 131.519C77.4329 130.283 76.7383 128.606 76.7383 126.857C76.7383 123.217 82.7393 113.833 83.3309 113.84Z" fill="#42A0F0"/>
<path d="M78.3042 129.321C78.963 129.523 79.8002 128.694 80.1742 127.471C80.5482 126.248 80.3173 125.093 79.6586 124.891C78.9998 124.69 78.1626 125.518 77.7886 126.742C77.4146 127.965 77.6455 129.12 78.3042 129.321Z" fill="white"/>
<path d="M117.741 113.84C118.333 113.847 124.334 123.216 124.334 126.857C124.334 128.606 123.639 130.283 122.403 131.519C121.166 132.755 119.49 133.45 117.741 133.45C115.993 133.45 114.316 132.755 113.079 131.519C111.843 130.283 111.148 128.606 111.148 126.857C111.148 123.217 117.149 113.833 117.741 113.84Z" fill="#42A0F0"/>
<path d="M112.714 129.321C113.373 129.523 114.21 128.694 114.584 127.471C114.958 126.248 114.727 125.093 114.069 124.891C113.41 124.69 112.573 125.518 112.199 126.742C111.825 127.965 112.056 129.12 112.714 129.321Z" fill="white"/>
<path d="M66.3104 84.98C66.9024 84.9866 72.9031 94.3562 72.9031 97.9973C72.9031 99.7458 72.2085 101.423 70.9721 102.659C69.7358 103.895 68.0589 104.59 66.3104 104.59C64.562 104.59 62.8851 103.895 61.6487 102.659C60.4124 101.423 59.7178 99.7458 59.7178 97.9973C59.7178 94.3565 65.7188 84.9733 66.3104 84.98Z" fill="#42A0F0"/>
<path d="M61.2837 100.461C61.9424 100.663 62.7797 99.8344 63.1537 98.6111C63.5277 97.3878 63.2968 96.2328 62.6381 96.0314C61.9793 95.83 61.1421 96.6584 60.7681 97.8817C60.3941 99.105 60.625 100.26 61.2837 100.461Z" fill="white"/>
<path d="M102.571 84.98C103.163 84.9866 109.164 94.3562 109.164 97.9973C109.164 99.7458 108.469 101.423 107.233 102.659C105.997 103.895 104.32 104.59 102.571 104.59C100.823 104.59 99.1458 103.895 97.9095 102.659C96.6731 101.423 95.9785 99.7458 95.9785 97.9973C95.9785 94.3565 101.98 84.9733 102.571 84.98Z" fill="#42A0F0"/>
<path d="M97.5444 100.461C98.2032 100.663 99.0404 99.8344 99.4144 98.6111C99.7884 97.3878 99.5576 96.2328 98.8988 96.0314C98.2401 95.83 97.4029 96.6584 97.0289 97.8817C96.6549 99.105 96.8857 100.26 97.5444 100.461Z" fill="white"/>
<g filter="url(#filter0_d_480_2165)">
<path d="M117.438 109.77H46.6078C39.7368 109.765 33.1341 107.102 28.1821 102.338C23.23 97.5752 20.3126 91.0809 20.0404 84.2153C19.7683 77.3496 22.1626 70.6448 26.7221 65.5045C31.2815 60.3642 37.6527 57.187 44.5018 56.6379C45.4785 49.7411 48.5929 43.3241 53.4068 38.2896C58.2208 33.2551 64.4919 29.8566 71.3381 28.5721C78.1843 27.2876 85.2609 28.1818 91.5723 31.1289C97.8838 34.076 103.112 38.9277 106.523 45.0014C112.778 42.8362 119.536 42.5832 125.935 44.2747C132.334 45.9663 138.085 49.5256 142.453 54.4988C146.821 59.472 149.608 65.6336 150.46 72.1977C151.312 78.7617 150.189 85.4307 147.235 91.3539C145.501 96.7054 142.116 101.37 137.567 104.679C133.018 107.987 127.537 109.77 121.912 109.77H117.438Z" fill="url(#paint0_linear_480_2165)"/>
<path d="M121.912 109.4C124.768 109.4 127.576 108.944 130.258 108.044C132.852 107.175 135.287 105.905 137.496 104.272C139.68 102.657 141.594 100.723 143.185 98.5229C144.796 96.2955 146.04 93.8452 146.882 91.2401L146.891 91.2134L146.904 91.1883C148.024 88.9505 148.886 86.5833 149.467 84.1524C150.065 81.651 150.368 79.0662 150.368 76.4698C150.368 74.2353 150.143 72.0024 149.699 69.8329C149.266 67.7188 148.621 65.6393 147.78 63.6522C146.955 61.701 145.933 59.8191 144.744 58.0587C143.566 56.3149 142.213 54.6751 140.723 53.1849C139.233 51.6946 137.593 50.3416 135.849 49.1636C134.089 47.9742 132.207 46.9528 130.255 46.1275C128.268 45.287 126.189 44.6415 124.075 44.2088C121.905 43.7649 119.672 43.5398 117.438 43.5398C113.738 43.5398 110.106 44.1487 106.644 45.3496L106.352 45.4509L106.2 45.1814C103.382 40.1709 99.2833 35.963 94.3467 33.0127C91.8501 31.5206 89.1678 30.3676 86.3745 29.5857C83.4928 28.779 80.4995 28.37 77.4778 28.37C73.4134 28.37 69.446 29.1015 65.6856 30.5441C62.053 31.9378 58.7205 33.951 55.7809 36.5278C52.8582 39.0897 50.4328 42.1126 48.5719 45.5124C46.6653 48.9957 45.4192 52.7557 44.8682 56.6879L44.8269 56.9823L44.5306 57.0054C41.2161 57.2649 38.0271 58.1376 35.0523 59.5992C32.1617 61.0194 29.5805 62.9404 27.3804 65.3087C22.8597 70.1751 20.37 76.5156 20.37 83.1621C20.37 86.7043 21.0637 90.1404 22.4317 93.3749C23.0893 94.9295 23.9032 96.4289 24.8508 97.8316C25.7895 99.221 26.8675 100.528 28.0549 101.715C29.2423 102.902 30.5488 103.98 31.9382 104.919C33.3409 105.867 34.8403 106.681 36.3949 107.338C39.6294 108.706 43.0655 109.4 46.6077 109.4H117.438H121.912ZM121.912 109.77H117.438H46.6077C31.9127 109.77 20 97.8571 20 83.1621C20 69.1757 30.7909 57.7098 44.5018 56.6366C46.7697 40.4532 60.6693 28 77.4778 28C89.9476 28 100.816 34.8536 106.522 45C109.942 43.814 113.615 43.1698 117.438 43.1698C135.829 43.1698 150.738 58.0789 150.738 76.4698C150.738 81.8197 149.476 86.8746 147.234 91.3539C143.78 102.04 133.748 109.77 121.912 109.77Z" fill="white" fill-opacity="0.5"/>
</g>
<defs>
<filter id="filter0_d_480_2165" x="0" y="0" width="190.737" height="141.77" filterUnits="userSpaceOnUse" color-interpolation-filters="sRGB">
<feFlood flood-opacity="0" result="BackgroundImageFix"/>
<feColorMatrix in="SourceAlpha" type="matrix" values="0 0 0 0 0 0 0 0 0 0 0 0 0 0 0 0 0 0 127 0" result="hardAlpha"/>
<feOffset dx="10" dy="2"/>
<feGaussianBlur stdDeviation="15"/>
<feColorMatrix type="matrix" values="0 0 0 0 0.501961 0 0 0 0 0.501961 0 0 0 0 0.501961 0 0 0 0.302 0"/>
<feBlend mode="normal" in2="BackgroundImageFix" result="effect1_dropShadow_480_2165"/>
<feBlend mode="normal" in="SourceGraphic" in2="effect1_dropShadow_480_2165" result="shape"/>
</filter>
<linearGradient id="paint0_linear_480_2165" x1="85.3782" y1="28.0009" x2="123.356" y2="119.821" gradientUnits="userSpaceOnUse">
<stop stop-color="white" stop-opacity="0.604"/>
<stop offset="1" stop-color="white" stop-opacity="0.2"/>
</linearGradient>
</defs>
</svg>
