<svg width="192" height="149" viewBox="0 0 192 149" fill="none" xmlns="http://www.w3.org/2000/svg">
<path d="M49.7831 121.04C50.3751 121.047 56.3758 130.417 56.3758 134.058C56.3758 135.806 55.6812 137.483 54.4448 138.719C53.2084 139.956 51.5316 140.65 49.7831 140.65C48.0346 140.65 46.3577 139.956 45.1214 138.719C43.885 137.483 43.1904 135.806 43.1904 134.058C43.1904 130.417 49.1915 121.034 49.7831 121.04Z" fill="#42A0F0"/>
<path d="M44.7564 136.522C45.4151 136.723 46.2523 135.895 46.6263 134.671C47.0003 133.448 46.7695 132.293 46.1107 132.092C45.452 131.89 44.6148 132.719 44.2408 133.942C43.8668 135.165 44.0976 136.32 44.7564 136.522Z" fill="white"/>
<path d="M84.1932 121.04C84.7852 121.047 90.7859 130.417 90.7859 134.058C90.7859 135.806 90.0913 137.483 88.855 138.719C87.6186 139.956 85.9417 140.65 84.1932 140.65C82.4448 140.65 80.7679 139.956 79.5315 138.719C78.2952 137.483 77.6006 135.806 77.6006 134.058C77.6006 130.417 83.6016 121.034 84.1932 121.04Z" fill="#42A0F0"/>
<path d="M79.1665 136.522C79.8253 136.723 80.6625 135.895 81.0365 134.671C81.4105 133.448 81.1796 132.293 80.5209 132.092C79.8621 131.89 79.0249 132.719 78.6509 133.942C78.2769 135.165 78.5078 136.32 79.1665 136.522Z" fill="white"/>
<path d="M118.603 121.04C119.195 121.047 125.196 130.417 125.196 134.058C125.196 135.806 124.501 137.483 123.265 138.719C122.029 139.956 120.352 140.65 118.603 140.65C116.855 140.65 115.178 139.956 113.942 138.719C112.705 137.483 112.011 135.806 112.011 134.058C112.011 130.417 118.012 121.034 118.603 121.04Z" fill="#42A0F0"/>
<path d="M113.577 136.522C114.235 136.723 115.073 135.895 115.447 134.671C115.821 133.448 115.59 132.293 114.931 132.092C114.272 131.89 113.435 132.719 113.061 133.942C112.687 135.165 112.918 136.32 113.577 136.522Z" fill="white"/>
<path d="M67.1727 92.1804C67.7647 92.1871 73.7654 101.557 73.7654 105.198C73.7654 106.946 73.0708 108.623 71.8345 109.859C70.5981 111.096 68.9212 111.79 67.1727 111.79C65.4243 111.79 63.7474 111.096 62.511 109.859C61.2747 108.623 60.5801 106.946 60.5801 105.198C60.5801 101.557 66.5811 92.1738 67.1727 92.1804Z" fill="#42A0F0"/>
<path d="M62.146 107.662C62.8048 107.863 63.642 107.035 64.016 105.812C64.39 104.588 64.1591 103.433 63.5004 103.232C62.8416 103.03 62.0044 103.859 61.6304 105.082C61.2564 106.305 61.4873 107.46 62.146 107.662Z" fill="white"/>
<path d="M103.433 92.1804C104.025 92.1871 110.026 101.557 110.026 105.198C110.026 106.946 109.332 108.623 108.095 109.859C106.859 111.096 105.182 111.79 103.433 111.79C101.685 111.79 100.008 111.096 98.7718 109.859C97.5354 108.623 96.8408 106.946 96.8408 105.198C96.8408 101.557 102.842 92.1738 103.433 92.1804Z" fill="#42A0F0"/>
<path d="M98.4067 107.662C99.0655 107.863 99.9027 107.035 100.277 105.812C100.651 104.588 100.42 103.433 99.7611 103.232C99.1024 103.03 98.2652 103.859 97.8912 105.082C97.5172 106.305 97.748 107.46 98.4067 107.662Z" fill="white"/>
<path d="M49.2087 15.1175C51.8024 15.1168 54.3894 15.3789 56.9303 15.8997C61.8341 16.9097 66.4899 18.8788 70.6303 21.6939C76.3664 25.5817 80.9493 30.9429 83.8974 37.2141C86.8455 43.4852 88.0499 50.4347 87.384 57.3321C86.7181 64.2296 84.2065 70.8203 80.1131 76.4116C76.0198 82.003 70.4959 86.3884 64.122 89.1071C61.8049 90.0917 59.3957 90.8434 56.9299 91.3512C51.583 92.4354 46.0665 92.3678 40.7478 91.1529C35.4291 89.938 30.4303 87.6037 26.0845 84.3055C21.7386 81.0072 18.1455 76.8209 15.5444 72.0251C12.9433 67.2294 11.3939 61.9345 10.9996 56.4931C15.1922 57.4743 19.5475 57.5374 23.7668 56.6781C27.553 55.9027 31.1495 54.3894 34.351 52.2244C39.1101 49.0116 42.8352 44.4875 45.0751 39.2004C45.8319 37.4098 46.4096 35.5486 46.7997 33.6441C47.6311 29.5635 47.6003 25.3542 46.7094 21.2861C46.2612 19.252 45.5984 17.2711 44.7321 15.3769C46.218 15.2039 47.7128 15.1173 49.2087 15.1175V15.1175Z" fill="#713FFD"/>
<g filter="url(#filter0_f_480_3020)">
<path d="M75.1352 27.0215C66.5347 19.2776 55.2679 17.7698 49.97 23.6536C44.6721 29.5375 47.3494 40.5851 55.9499 48.329C64.5504 56.0729 75.8172 57.5807 81.1151 51.6968C86.413 45.813 83.7357 34.7654 75.1352 27.0215Z" fill="#A586FC"/>
</g>
<g filter="url(#filter1_d_480_3020)">
<path d="M118.3 116.971H47.4702C40.5991 116.966 33.9964 114.303 29.0444 109.539C24.0923 104.776 21.1749 98.2819 20.9027 91.4162C20.6306 84.5505 23.0249 77.8457 27.5844 72.7055C32.1439 67.5652 38.515 64.3879 45.3641 63.8389C46.3408 56.9421 49.4552 50.525 54.2691 45.4905C59.0831 40.4561 65.3542 37.0575 72.2004 35.773C79.0466 34.4885 86.1232 35.3827 92.4346 38.3298C98.7461 41.277 103.975 46.1286 107.385 52.2024C113.64 50.0371 120.398 49.7841 126.797 51.4757C133.197 53.1672 138.947 56.7266 143.315 61.6998C147.683 66.6729 150.471 72.8345 151.322 79.3986C152.174 85.9626 151.051 92.6316 148.097 98.5548C146.363 103.906 142.979 108.571 138.429 111.88C133.88 115.188 128.399 116.971 122.774 116.971H118.3Z" fill="url(#paint0_linear_480_3020)"/>
<path d="M122.774 116.601C125.63 116.601 128.438 116.145 131.121 115.245C133.715 114.375 136.15 113.106 138.359 111.473C140.542 109.858 142.456 107.924 144.047 105.724C145.659 103.496 146.902 101.046 147.745 98.4409L147.753 98.4142L147.766 98.3891C148.886 96.1513 149.748 93.7841 150.329 91.3532C150.927 88.8518 151.23 86.267 151.23 83.6706C151.23 81.4361 151.005 79.2032 150.561 77.0337C150.128 74.9196 149.483 72.8401 148.642 70.853C147.817 68.9018 146.796 67.0199 145.606 65.2595C144.428 63.5157 143.075 61.8759 141.585 60.3857C140.095 58.8954 138.455 57.5424 136.711 56.3644C134.951 55.1751 133.069 54.1536 131.118 53.3283C129.131 52.4878 127.051 51.8423 124.937 51.4096C122.768 50.9657 120.535 50.7406 118.3 50.7406C114.6 50.7406 110.969 51.3495 107.506 52.5504L107.214 52.6517L107.062 52.3822C104.244 47.3717 100.146 43.1638 95.209 40.2135C92.7124 38.7214 90.0302 37.5684 87.2368 36.7865C84.3551 35.9798 81.3618 35.5708 78.3401 35.5708C74.2757 35.5708 70.3083 36.3023 66.548 37.7449C62.9153 39.1386 59.5829 41.1518 56.6432 43.7286C53.7205 46.2905 51.2951 49.3134 49.4342 52.7132C47.5276 56.1965 46.2815 59.9565 45.7305 63.8887L45.6892 64.1831L45.3929 64.2062C42.0784 64.4657 38.8894 65.3384 35.9146 66.8C33.024 68.2202 30.4428 70.1412 28.2427 72.5095C23.722 77.3759 21.2323 83.7164 21.2323 90.3629C21.2323 93.9051 21.926 97.3412 23.294 100.576C23.9516 102.13 24.7655 103.63 25.7131 105.032C26.6518 106.422 27.7298 107.728 28.9172 108.916C30.1046 110.103 31.4111 111.181 32.8005 112.12C34.2032 113.067 35.7026 113.881 37.2572 114.539C40.4917 115.907 43.9278 116.601 47.47 116.601H118.3H122.774ZM122.774 116.971H118.3H47.47C32.775 116.971 20.8623 105.058 20.8623 90.3629C20.8623 76.3765 31.6532 64.9106 45.3641 63.8374C47.632 47.654 61.5316 35.2008 78.3401 35.2008C90.8099 35.2008 101.679 42.0544 107.385 52.2008C110.804 51.0148 114.477 50.3706 118.3 50.3706C136.691 50.3706 151.6 65.2797 151.6 83.6706C151.6 89.0205 150.339 94.0754 148.097 98.5547C144.642 109.241 134.61 116.971 122.774 116.971Z" fill="white" fill-opacity="0.5"/>
</g>
<defs>
<filter id="filter0_f_480_3020" x="27.25" y="0.0644531" width="76.585" height="75.2216" filterUnits="userSpaceOnUse" color-interpolation-filters="sRGB">
<feFlood flood-opacity="0" result="BackgroundImageFix"/>
<feBlend mode="normal" in="SourceGraphic" in2="BackgroundImageFix" result="shape"/>
<feGaussianBlur stdDeviation="10" result="effect1_foregroundBlur_480_3020"/>
</filter>
<filter id="filter1_d_480_3020" x="0.862305" y="7.20081" width="190.737" height="141.77" filterUnits="userSpaceOnUse" color-interpolation-filters="sRGB">
<feFlood flood-opacity="0" result="BackgroundImageFix"/>
<feColorMatrix in="SourceAlpha" type="matrix" values="0 0 0 0 0 0 0 0 0 0 0 0 0 0 0 0 0 0 127 0" result="hardAlpha"/>
<feOffset dx="10" dy="2"/>
<feGaussianBlur stdDeviation="15"/>
<feColorMatrix type="matrix" values="0 0 0 0 0.501961 0 0 0 0 0.501961 0 0 0 0 0.501961 0 0 0 0.302 0"/>
<feBlend mode="normal" in2="BackgroundImageFix" result="effect1_dropShadow_480_3020"/>
<feBlend mode="normal" in="SourceGraphic" in2="effect1_dropShadow_480_3020" result="shape"/>
</filter>
<linearGradient id="paint0_linear_480_3020" x1="86.2405" y1="35.2018" x2="124.218" y2="127.022" gradientUnits="userSpaceOnUse">
<stop stop-color="white" stop-opacity="0.604"/>
<stop offset="1" stop-color="white" stop-opacity="0.2"/>
</linearGradient>
</defs>
</svg>
