<svg width="192" height="149" viewBox="0 0 192 149" fill="none" xmlns="http://www.w3.org/2000/svg">
<path d="M120.394 121.736V141.205" stroke="#42A0F0" stroke-width="4" stroke-linecap="round"/>
<path d="M120.354 126.495L123.707 123.034" stroke="#42A0F0" stroke-width="4" stroke-linecap="round"/>
<path d="M120.355 126.495L116.894 123.034" stroke="#42A0F0" stroke-width="4" stroke-linecap="round"/>
<path d="M120.354 136.879L123.707 140.34" stroke="#42A0F0" stroke-width="4" stroke-linecap="round"/>
<path d="M120.355 136.879L116.894 140.34" stroke="#42A0F0" stroke-width="4" stroke-linecap="round"/>
<path d="M128.777 126.684L111.917 136.419" stroke="#42A0F0" stroke-width="4" stroke-linecap="round"/>
<path d="M124.635 129.09L129.309 130.143" stroke="#42A0F0" stroke-width="4" stroke-linecap="round"/>
<path d="M124.682 129.03L125.856 124.302" stroke="#42A0F0" stroke-width="4" stroke-linecap="round"/>
<path d="M115.599 134.221L114.368 138.856" stroke="#42A0F0" stroke-width="4" stroke-linecap="round"/>
<path d="M115.644 134.16L110.916 133.016" stroke="#42A0F0" stroke-width="4" stroke-linecap="round"/>
<path d="M128.684 136.418L111.823 126.684" stroke="#42A0F0" stroke-width="4" stroke-linecap="round"/>
<path d="M124.628 134.005L125.859 138.639" stroke="#42A0F0" stroke-width="4" stroke-linecap="round"/>
<path d="M124.583 133.944L129.311 132.8" stroke="#42A0F0" stroke-width="4" stroke-linecap="round"/>
<path d="M115.591 128.874L110.917 129.926" stroke="#42A0F0" stroke-width="4" stroke-linecap="round"/>
<path d="M115.545 128.813L114.37 124.086" stroke="#42A0F0" stroke-width="4" stroke-linecap="round"/>
<path d="M85.9229 121.736V141.205" stroke="#42A0F0" stroke-width="4" stroke-linecap="round"/>
<path d="M85.8838 126.495L89.2367 123.034" stroke="#42A0F0" stroke-width="4" stroke-linecap="round"/>
<path d="M85.8838 126.495L82.4229 123.034" stroke="#42A0F0" stroke-width="4" stroke-linecap="round"/>
<path d="M85.8838 136.879L89.2367 140.34" stroke="#42A0F0" stroke-width="4" stroke-linecap="round"/>
<path d="M85.8838 136.879L82.4229 140.34" stroke="#42A0F0" stroke-width="4" stroke-linecap="round"/>
<path d="M94.3066 126.684L77.4463 136.419" stroke="#42A0F0" stroke-width="4" stroke-linecap="round"/>
<path d="M90.1648 129.09L94.8386 130.143" stroke="#42A0F0" stroke-width="4" stroke-linecap="round"/>
<path d="M90.211 129.03L91.3857 124.302" stroke="#42A0F0" stroke-width="4" stroke-linecap="round"/>
<path d="M81.1279 134.221L79.8969 138.856" stroke="#42A0F0" stroke-width="4" stroke-linecap="round"/>
<path d="M81.173 134.16L76.4452 133.016" stroke="#42A0F0" stroke-width="4" stroke-linecap="round"/>
<path d="M94.2129 136.418L77.3525 126.684" stroke="#42A0F0" stroke-width="4" stroke-linecap="round"/>
<path d="M90.157 134.005L91.388 138.639" stroke="#42A0F0" stroke-width="4" stroke-linecap="round"/>
<path d="M90.1121 133.944L94.8398 132.8" stroke="#42A0F0" stroke-width="4" stroke-linecap="round"/>
<path d="M81.1201 128.874L76.4464 129.926" stroke="#42A0F0" stroke-width="4" stroke-linecap="round"/>
<path d="M81.0741 128.813L79.8993 124.086" stroke="#42A0F0" stroke-width="4" stroke-linecap="round"/>
<path d="M51.5127 121.736V141.205" stroke="#42A0F0" stroke-width="4" stroke-linecap="round"/>
<path d="M51.4736 126.495L54.8266 123.034" stroke="#42A0F0" stroke-width="4" stroke-linecap="round"/>
<path d="M51.4737 126.495L48.0127 123.034" stroke="#42A0F0" stroke-width="4" stroke-linecap="round"/>
<path d="M51.4736 136.879L54.8266 140.34" stroke="#42A0F0" stroke-width="4" stroke-linecap="round"/>
<path d="M51.4737 136.879L48.0127 140.34" stroke="#42A0F0" stroke-width="4" stroke-linecap="round"/>
<path d="M59.8965 126.684L43.0361 136.419" stroke="#42A0F0" stroke-width="4" stroke-linecap="round"/>
<path d="M55.7546 129.09L60.4284 130.143" stroke="#42A0F0" stroke-width="4" stroke-linecap="round"/>
<path d="M55.8008 129.03L56.9756 124.302" stroke="#42A0F0" stroke-width="4" stroke-linecap="round"/>
<path d="M46.7178 134.221L45.4868 138.856" stroke="#42A0F0" stroke-width="4" stroke-linecap="round"/>
<path d="M46.7628 134.16L42.035 133.016" stroke="#42A0F0" stroke-width="4" stroke-linecap="round"/>
<path d="M59.8027 136.418L42.9424 126.684" stroke="#42A0F0" stroke-width="4" stroke-linecap="round"/>
<path d="M55.7468 134.005L56.9778 138.639" stroke="#42A0F0" stroke-width="4" stroke-linecap="round"/>
<path d="M55.7019 133.944L60.4297 132.8" stroke="#42A0F0" stroke-width="4" stroke-linecap="round"/>
<path d="M46.71 128.874L42.0362 129.926" stroke="#42A0F0" stroke-width="4" stroke-linecap="round"/>
<path d="M46.6639 128.813L45.4891 124.086" stroke="#42A0F0" stroke-width="4" stroke-linecap="round"/>
<path d="M68.1631 92.5063V111.975" stroke="#42A0F0" stroke-width="4" stroke-linecap="round"/>
<path d="M68.124 97.2653L71.477 93.8043" stroke="#42A0F0" stroke-width="4" stroke-linecap="round"/>
<path d="M68.1241 97.2653L64.6631 93.8043" stroke="#42A0F0" stroke-width="4" stroke-linecap="round"/>
<path d="M68.124 107.649L71.477 111.11" stroke="#42A0F0" stroke-width="4" stroke-linecap="round"/>
<path d="M68.1241 107.649L64.6631 111.11" stroke="#42A0F0" stroke-width="4" stroke-linecap="round"/>
<path d="M76.5469 97.4542L59.6865 107.189" stroke="#42A0F0" stroke-width="4" stroke-linecap="round"/>
<path d="M72.405 99.8602L77.0788 100.913" stroke="#42A0F0" stroke-width="4" stroke-linecap="round"/>
<path d="M72.4512 99.7998L73.626 95.072" stroke="#42A0F0" stroke-width="4" stroke-linecap="round"/>
<path d="M63.3682 104.991L62.1371 109.626" stroke="#42A0F0" stroke-width="4" stroke-linecap="round"/>
<path d="M63.4132 104.93L58.6854 103.786" stroke="#42A0F0" stroke-width="4" stroke-linecap="round"/>
<path d="M76.4531 107.188L59.5928 97.4541" stroke="#42A0F0" stroke-width="4" stroke-linecap="round"/>
<path d="M72.3972 104.775L73.6282 109.409" stroke="#42A0F0" stroke-width="4" stroke-linecap="round"/>
<path d="M72.3523 104.714L77.0801 103.57" stroke="#42A0F0" stroke-width="4" stroke-linecap="round"/>
<path d="M63.3604 99.6437L58.6866 100.696" stroke="#42A0F0" stroke-width="4" stroke-linecap="round"/>
<path d="M63.3143 99.5833L62.1395 94.8555" stroke="#42A0F0" stroke-width="4" stroke-linecap="round"/>
<path d="M106.272 92.5063V111.975" stroke="#42A0F0" stroke-width="4" stroke-linecap="round"/>
<path d="M106.233 97.2653L109.586 93.8043" stroke="#42A0F0" stroke-width="4" stroke-linecap="round"/>
<path d="M106.233 97.2653L102.772 93.8043" stroke="#42A0F0" stroke-width="4" stroke-linecap="round"/>
<path d="M106.233 107.649L109.586 111.11" stroke="#42A0F0" stroke-width="4" stroke-linecap="round"/>
<path d="M106.233 107.649L102.772 111.11" stroke="#42A0F0" stroke-width="4" stroke-linecap="round"/>
<path d="M114.656 97.4542L97.7959 107.189" stroke="#42A0F0" stroke-width="4" stroke-linecap="round"/>
<path d="M110.514 99.8602L115.188 100.913" stroke="#42A0F0" stroke-width="4" stroke-linecap="round"/>
<path d="M110.561 99.7998L111.735 95.072" stroke="#42A0F0" stroke-width="4" stroke-linecap="round"/>
<path d="M101.478 104.991L100.247 109.626" stroke="#42A0F0" stroke-width="4" stroke-linecap="round"/>
<path d="M101.523 104.93L96.7948 103.786" stroke="#42A0F0" stroke-width="4" stroke-linecap="round"/>
<path d="M114.562 107.188L97.7021 97.4541" stroke="#42A0F0" stroke-width="4" stroke-linecap="round"/>
<path d="M110.507 104.775L111.738 109.409" stroke="#42A0F0" stroke-width="4" stroke-linecap="round"/>
<path d="M110.462 104.714L115.189 103.57" stroke="#42A0F0" stroke-width="4" stroke-linecap="round"/>
<path d="M101.47 99.6437L96.796 100.696" stroke="#42A0F0" stroke-width="4" stroke-linecap="round"/>
<path d="M101.424 99.5833L100.249 94.8555" stroke="#42A0F0" stroke-width="4" stroke-linecap="round"/>
<path d="M44.2087 15.1176C46.8024 15.117 49.3894 15.379 51.9303 15.8998C56.8341 16.9098 61.4899 18.8789 65.6303 21.694C71.3664 25.5818 75.9493 30.943 78.8974 37.2142C81.8455 43.4853 83.0499 50.4348 82.384 57.3322C81.7181 64.2297 79.2065 70.8204 75.1131 76.4118C71.0198 82.0031 65.4959 86.3886 59.122 89.1072C56.8049 90.0918 54.3957 90.8435 51.9299 91.3513C46.583 92.4355 41.0665 92.3679 35.7478 91.153C30.4291 89.9381 25.4303 87.6038 21.0845 84.3056C16.7386 81.0074 13.1455 76.821 10.5444 72.0253C7.94328 67.2296 6.39394 61.9346 5.99957 56.4932C10.1922 57.4744 14.5475 57.5376 18.7668 56.6782C22.553 55.9028 26.1495 54.3895 29.351 52.2245C34.1101 49.0117 37.8352 44.4877 40.0751 39.2005C40.8319 37.4099 41.4096 35.5487 41.7997 33.6443C42.6311 29.5636 42.6003 25.3543 41.7094 21.2862C41.2612 19.2521 40.5984 17.2712 39.7321 15.377C41.218 15.2041 42.7128 15.1175 44.2087 15.1176V15.1176Z" fill="#713FFD"/>
<g filter="url(#filter0_f_480_3458)">
<path d="M70.1352 27.0215C61.5347 19.2776 50.2679 17.7698 44.97 23.6536C39.6721 29.5375 42.3494 40.5851 50.9499 48.329C59.5504 56.0729 70.8172 57.5807 76.1151 51.6968C81.413 45.813 78.7357 34.7654 70.1352 27.0215Z" fill="#A586FC"/>
</g>
<g filter="url(#filter1_d_480_3458)">
<path d="M117.867 116.971H47.0375C40.1665 116.966 33.5638 114.303 28.6118 109.539C23.6597 104.776 20.7423 98.2819 20.4701 91.4162C20.198 84.5505 22.5923 77.8457 27.1518 72.7055C31.7112 67.5652 38.0824 64.3879 44.9315 63.8389C45.9082 56.9421 49.0226 50.525 53.8365 45.4905C58.6505 40.4561 64.9216 37.0575 71.7678 35.773C78.6139 34.4885 85.6905 35.3827 92.002 38.3298C98.3134 41.277 103.542 46.1286 106.952 52.2024C113.207 50.0372 119.965 49.7841 126.364 51.4756C132.763 53.167 138.514 56.7261 142.882 61.6991C147.25 66.6721 150.038 72.8335 150.889 79.3974C151.741 85.9612 150.619 92.6301 147.665 98.5534C145.932 103.905 142.547 108.571 137.998 111.879C133.448 115.188 127.967 116.971 122.341 116.971H117.867Z" fill="url(#paint0_linear_480_3458)"/>
<path d="M122.341 116.601C125.198 116.601 128.006 116.145 130.689 115.245C133.283 114.375 135.718 113.106 137.927 111.472C140.11 109.857 142.024 107.923 143.616 105.723C145.227 103.495 146.471 101.045 147.313 98.4394L147.321 98.4127L147.334 98.3876C148.454 96.1501 149.316 93.783 149.897 91.3522C150.494 88.8508 150.797 86.2664 150.797 83.6706C150.797 81.4361 150.572 79.2032 150.128 77.0337C149.696 74.9196 149.05 72.8401 148.21 70.853C147.385 68.9018 146.363 67.0199 145.174 65.2595C143.996 63.5157 142.643 61.8759 141.153 60.3857C139.662 58.8954 138.023 57.5424 136.279 56.3644C134.518 55.1751 132.636 54.1536 130.685 53.3283C128.698 52.4878 126.619 51.8423 124.504 51.4096C122.335 50.9657 120.102 50.7406 117.867 50.7406C114.168 50.7406 110.536 51.3495 107.073 52.5504L106.781 52.6517L106.63 52.3822C103.812 47.3717 99.713 43.1638 94.7764 40.2135C92.2798 38.7215 89.5976 37.5685 86.8042 36.7865C83.9225 35.9798 80.9292 35.5708 77.9075 35.5708C73.8431 35.5708 69.8757 36.3023 66.1153 37.7449C62.4827 39.1386 59.1502 41.1518 56.2106 43.7286C53.2879 46.2905 50.8624 49.3134 49.0016 52.7132C47.095 56.1965 45.8489 59.9565 45.2979 63.8887L45.2566 64.1831L44.9603 64.2062C41.6458 64.4657 38.4568 65.3384 35.4819 66.8C32.5914 68.2202 30.0102 70.1412 27.8101 72.5095C23.2894 77.3759 20.7997 83.7164 20.7997 90.3629C20.7997 93.9051 21.4934 97.3412 22.8614 100.576C23.519 102.13 24.3329 103.63 25.2805 105.032C26.2191 106.422 27.2972 107.728 28.4846 108.916C29.672 110.103 30.9785 111.181 32.3679 112.12C33.7706 113.067 35.27 113.881 36.8246 114.539C40.0591 115.907 43.4952 116.601 47.0374 116.601H117.867H122.341ZM122.341 116.971H117.867H47.0374C32.3424 116.971 20.4297 105.058 20.4297 90.3629C20.4297 76.3765 31.2206 64.9106 44.9314 63.8374C47.1993 47.654 61.099 35.2008 77.9075 35.2008C90.3773 35.2008 101.246 42.0544 106.952 52.2008C110.372 51.0149 114.044 50.3706 117.867 50.3706C136.259 50.3706 151.167 65.2797 151.167 83.6706C151.167 89.0194 149.906 94.0746 147.665 98.5532C144.211 109.241 134.179 116.971 122.341 116.971Z" fill="white" fill-opacity="0.5"/>
</g>
<defs>
<filter id="filter0_f_480_3458" x="22.25" y="0.0644531" width="76.585" height="75.2216" filterUnits="userSpaceOnUse" color-interpolation-filters="sRGB">
<feFlood flood-opacity="0" result="BackgroundImageFix"/>
<feBlend mode="normal" in="SourceGraphic" in2="BackgroundImageFix" result="shape"/>
<feGaussianBlur stdDeviation="10" result="effect1_foregroundBlur_480_3458"/>
</filter>
<filter id="filter1_d_480_3458" x="0.429688" y="7.20081" width="190.737" height="141.77" filterUnits="userSpaceOnUse" color-interpolation-filters="sRGB">
<feFlood flood-opacity="0" result="BackgroundImageFix"/>
<feColorMatrix in="SourceAlpha" type="matrix" values="0 0 0 0 0 0 0 0 0 0 0 0 0 0 0 0 0 0 127 0" result="hardAlpha"/>
<feOffset dx="10" dy="2"/>
<feGaussianBlur stdDeviation="15"/>
<feColorMatrix type="matrix" values="0 0 0 0 0.501961 0 0 0 0 0.501961 0 0 0 0 0.501961 0 0 0 0.302 0"/>
<feBlend mode="normal" in2="BackgroundImageFix" result="effect1_dropShadow_480_3458"/>
<feBlend mode="normal" in="SourceGraphic" in2="effect1_dropShadow_480_3458" result="shape"/>
</filter>
<linearGradient id="paint0_linear_480_3458" x1="85.8079" y1="35.2018" x2="123.786" y2="127.022" gradientUnits="userSpaceOnUse">
<stop stop-color="white" stop-opacity="0.604"/>
<stop offset="1" stop-color="white" stop-opacity="0.2"/>
</linearGradient>
</defs>
</svg>
