<svg width="191" height="142" viewBox="0 0 191 142" fill="none" xmlns="http://www.w3.org/2000/svg">
<path d="M72.0336 88.072C72.2671 88.0787 74.6366 97.4138 74.6366 101.041C74.6366 104.669 73.4711 107.61 72.0336 107.61C70.5962 107.61 69.4307 104.669 69.4307 101.042C69.4307 97.4142 71.7987 88.0657 72.0336 88.072Z" fill="#42A0F0"/>
<path d="M71.6368 98.958C72.017 99.0901 72.1326 99.9116 71.8951 100.793C71.6576 101.675 71.1565 102.283 70.7762 102.151C70.3959 102.019 70.2801 101.197 70.5179 100.316C70.7558 99.4338 71.2561 98.8261 71.6368 98.958Z" fill="white"/>
<path d="M94.2084 88.072C94.4419 88.0787 96.8114 97.4138 96.8114 101.041C96.8114 104.669 95.6459 107.61 94.2084 107.61C92.771 107.61 91.6055 104.669 91.6055 101.042C91.6055 97.4142 93.9735 88.0657 94.2084 88.072Z" fill="#42A0F0"/>
<path d="M93.8116 98.958C94.1918 99.0901 94.3074 99.9116 94.0699 100.793C93.8324 101.675 93.3313 102.283 92.951 102.151C92.5707 102.019 92.4549 101.197 92.6927 100.316C92.9306 99.4338 93.4309 98.8261 93.8116 98.958Z" fill="white"/>
<path d="M116.382 86.962C116.616 86.9687 118.985 96.3038 118.985 99.9313C118.985 103.559 117.82 106.5 116.382 106.5C114.945 106.5 113.779 103.559 113.779 99.9316C113.779 96.3042 116.147 86.9557 116.382 86.962Z" fill="#42A0F0"/>
<path d="M115.985 97.848C116.366 97.9801 116.481 98.8016 116.244 99.6835C116.006 100.565 115.505 101.173 115.125 101.041C114.745 100.909 114.629 100.087 114.867 99.2056C115.104 98.3238 115.605 97.7161 115.985 97.848Z" fill="white"/>
<path d="M82.4692 112.862C82.7026 112.869 85.0721 122.204 85.0721 125.831C85.0721 129.459 83.9066 132.4 82.4692 132.4C81.0317 132.4 79.8662 129.459 79.8662 125.832C79.8662 122.204 82.2342 112.856 82.4692 112.862Z" fill="#42A0F0"/>
<path d="M82.0723 123.748C82.4525 123.88 82.5681 124.702 82.3306 125.584C82.0931 126.465 81.5921 127.073 81.2118 126.941C80.8315 126.809 80.7156 125.987 80.9535 125.106C81.1913 124.224 81.6917 123.616 82.0723 123.748Z" fill="white"/>
<path d="M104.643 112.862C104.876 112.869 107.246 122.204 107.246 125.831C107.246 129.459 106.08 132.4 104.643 132.4C103.206 132.4 102.04 129.459 102.04 125.832C102.04 122.204 104.408 112.856 104.643 112.862Z" fill="#42A0F0"/>
<path d="M104.246 123.748C104.626 123.88 104.742 124.702 104.504 125.584C104.267 126.465 103.766 127.073 103.386 126.941C103.005 126.809 102.889 125.987 103.127 125.106C103.365 124.224 103.866 123.616 104.246 123.748Z" fill="white"/>
<path d="M128.122 112.862C128.355 112.869 130.724 122.204 130.724 125.831C130.724 129.459 129.559 132.4 128.122 132.4C126.684 132.4 125.519 129.459 125.519 125.832C125.519 122.204 127.887 112.856 128.122 112.862Z" fill="#42A0F0"/>
<path d="M127.725 123.748C128.105 123.88 128.22 124.702 127.983 125.584C127.745 126.465 127.244 127.073 126.864 126.941C126.484 126.809 126.368 125.987 126.606 125.106C126.844 124.224 127.344 123.616 127.725 123.748Z" fill="white"/>
<path d="M45.4562 98.1083H60.4083L51.8136 110.729L61.8628 110.92L40.7698 135.885L45.8806 116.851H36.5244L45.4562 98.1083Z" fill="url(#paint0_linear_480_3606)"/>
<g filter="url(#filter0_d_480_3606)">
<path d="M117.438 109.77H46.6078C39.7368 109.765 33.1341 107.102 28.1821 102.338C23.23 97.5752 20.3126 91.0809 20.0404 84.2153C19.7683 77.3496 22.1626 70.6448 26.7221 65.5045C31.2815 60.3642 37.6527 57.187 44.5018 56.6379C45.4785 49.7411 48.5929 43.3241 53.4068 38.2896C58.2208 33.2551 64.4919 29.8566 71.3381 28.5721C78.1843 27.2876 85.2609 28.1818 91.5723 31.1289C97.8838 34.076 103.112 38.9277 106.523 45.0014C112.777 42.8362 119.535 42.5832 125.935 44.2746C132.334 45.966 138.084 49.5252 142.452 54.4982C146.82 59.4712 149.608 65.6325 150.46 72.1964C151.312 78.7603 150.189 85.4292 147.235 91.3524C145.502 96.7044 142.118 101.37 137.568 104.678C133.018 107.987 127.537 109.77 121.912 109.77H117.438Z" fill="url(#paint1_linear_480_3606)"/>
<path d="M121.912 109.4C124.768 109.4 127.577 108.944 130.259 108.044C132.853 107.174 135.288 105.905 137.497 104.271C139.681 102.657 141.595 100.722 143.186 98.5221C144.797 96.2945 146.041 93.844 146.883 91.2386L146.892 91.2119L146.904 91.1868C148.024 88.9493 148.886 86.5822 149.467 84.1514C150.065 81.65 150.368 79.0656 150.368 76.4698C150.368 74.2353 150.143 72.0024 149.699 69.8329C149.266 67.7188 148.621 65.6393 147.78 63.6522C146.955 61.701 145.933 59.8191 144.744 58.0587C143.566 56.3149 142.213 54.6751 140.723 53.1849C139.233 51.6946 137.593 50.3416 135.849 49.1636C134.089 47.9742 132.207 46.9528 130.256 46.1275C128.268 45.287 126.189 44.6415 124.075 44.2088C121.905 43.7649 119.672 43.5398 117.438 43.5398C113.738 43.5398 110.106 44.1487 106.644 45.3496L106.352 45.4509L106.2 45.1814C103.382 40.1709 99.2833 35.963 94.3467 33.0127C91.8501 31.5207 89.1679 30.3676 86.3745 29.5857C83.4928 28.779 80.4995 28.37 77.4778 28.37C73.4134 28.37 69.446 29.1015 65.6856 30.5441C62.053 31.9378 58.7205 33.951 55.7809 36.5278C52.8582 39.0897 50.4328 42.1126 48.5719 45.5124C46.6653 48.9957 45.4192 52.7557 44.8682 56.6879L44.8269 56.9823L44.5306 57.0054C41.2161 57.2649 38.0271 58.1376 35.0523 59.5992C32.1617 61.0194 29.5805 62.9404 27.3804 65.3087C22.8597 70.1751 20.37 76.5156 20.37 83.1621C20.37 86.7043 21.0637 90.1404 22.4317 93.3749C23.0893 94.9295 23.9032 96.4289 24.8508 97.8316C25.7895 99.221 26.8675 100.528 28.0549 101.715C29.2423 102.902 30.5488 103.98 31.9382 104.919C33.3409 105.867 34.8403 106.681 36.3949 107.338C39.6294 108.706 43.0655 109.4 46.6077 109.4H117.438H121.912ZM121.912 109.77H117.438H46.6077C31.9127 109.77 20 97.8571 20 83.1621C20 69.1757 30.7909 57.7098 44.5018 56.6366C46.7697 40.4532 60.6693 28 77.4778 28C89.9476 28 100.816 34.8536 106.522 45C109.942 43.8141 113.615 43.1698 117.438 43.1698C135.829 43.1698 150.738 58.0789 150.738 76.4698C150.738 81.8186 149.476 86.8738 147.235 91.3524C143.781 102.04 133.749 109.77 121.912 109.77Z" fill="white" fill-opacity="0.5"/>
</g>
<defs>
<filter id="filter0_d_480_3606" x="0" y="0" width="190.737" height="141.77" filterUnits="userSpaceOnUse" color-interpolation-filters="sRGB">
<feFlood flood-opacity="0" result="BackgroundImageFix"/>
<feColorMatrix in="SourceAlpha" type="matrix" values="0 0 0 0 0 0 0 0 0 0 0 0 0 0 0 0 0 0 127 0" result="hardAlpha"/>
<feOffset dx="10" dy="2"/>
<feGaussianBlur stdDeviation="15"/>
<feColorMatrix type="matrix" values="0 0 0 0 0.501961 0 0 0 0 0.501961 0 0 0 0 0.501961 0 0 0 0.302 0"/>
<feBlend mode="normal" in2="BackgroundImageFix" result="effect1_dropShadow_480_3606"/>
<feBlend mode="normal" in="SourceGraphic" in2="effect1_dropShadow_480_3606" result="shape"/>
</filter>
<linearGradient id="paint0_linear_480_3606" x1="46.8625" y1="116.997" x2="35.0267" y2="112.658" gradientUnits="userSpaceOnUse">
<stop stop-color="#FFD100"/>
<stop offset="1" stop-color="#FFF0AA"/>
</linearGradient>
<linearGradient id="paint1_linear_480_3606" x1="85.3782" y1="28.0009" x2="123.356" y2="119.821" gradientUnits="userSpaceOnUse">
<stop stop-color="white" stop-opacity="0.604"/>
<stop offset="1" stop-color="white" stop-opacity="0.2"/>
</linearGradient>
</defs>
</svg>
