<svg width="198" height="144" viewBox="0 0 198 144" fill="none" xmlns="http://www.w3.org/2000/svg">
<path d="M78.8735 89.9609C79.1069 89.9676 81.4764 99.3027 81.4764 102.93C81.4764 106.558 80.3109 109.499 78.8735 109.499C77.436 109.499 76.2705 106.558 76.2705 102.931C76.2705 99.3031 78.6385 89.9547 78.8735 89.9609Z" fill="#42A0F0"/>
<path d="M78.4766 100.847C78.8568 100.979 78.9724 101.801 78.7349 102.683C78.4974 103.564 77.9964 104.172 77.6161 104.04C77.2358 103.908 77.1199 103.086 77.3578 102.205C77.5956 101.323 78.096 100.715 78.4766 100.847Z" fill="white"/>
<path d="M101.048 89.9609C101.282 89.9676 103.651 99.3027 103.651 102.93C103.651 106.558 102.486 109.499 101.048 109.499C99.6108 109.499 98.4453 106.558 98.4453 102.931C98.4453 99.3031 100.813 89.9547 101.048 89.9609Z" fill="#42A0F0"/>
<path d="M100.651 100.847C101.032 100.979 101.147 101.801 100.91 102.683C100.672 103.564 100.171 104.172 99.7909 104.04C99.4106 103.908 99.2947 103.086 99.5326 102.205C99.7704 101.323 100.271 100.715 100.651 100.847Z" fill="white"/>
<path d="M123.222 88.8508C123.456 88.8575 125.825 98.1926 125.825 101.82C125.825 105.448 124.66 108.389 123.222 108.389C121.785 108.389 120.619 105.448 120.619 101.82C120.619 98.193 122.987 88.8445 123.222 88.8508Z" fill="#42A0F0"/>
<path d="M122.825 99.7369C123.205 99.869 123.321 100.691 123.084 101.572C122.846 102.454 122.345 103.062 121.965 102.93C121.584 102.798 121.469 101.976 121.706 101.095C121.944 100.213 122.445 99.6051 122.825 99.7369Z" fill="white"/>
<path d="M89.309 114.751C89.5425 114.757 91.912 124.092 91.912 127.72C91.912 131.347 90.7465 134.289 89.309 134.289C87.8716 134.289 86.7061 131.348 86.7061 127.72C86.7061 124.093 89.0741 114.744 89.309 114.751Z" fill="#42A0F0"/>
<path d="M88.9122 125.637C89.2924 125.769 89.408 126.59 89.1705 127.472C88.933 128.354 88.4319 128.962 88.0516 128.83C87.6713 128.698 87.5555 127.876 87.7933 126.994C88.0312 126.113 88.5315 125.505 88.9122 125.637Z" fill="white"/>
<path d="M111.483 114.751C111.716 114.757 114.086 124.092 114.086 127.72C114.086 131.347 112.92 134.289 111.483 134.289C110.045 134.289 108.88 131.348 108.88 127.72C108.88 124.093 111.248 114.744 111.483 114.751Z" fill="#42A0F0"/>
<path d="M111.086 125.637C111.466 125.769 111.582 126.59 111.344 127.472C111.107 128.354 110.606 128.962 110.225 128.83C109.845 128.698 109.729 127.876 109.967 126.994C110.205 126.113 110.705 125.505 111.086 125.637Z" fill="white"/>
<path d="M134.961 114.751C135.195 114.757 137.564 124.092 137.564 127.72C137.564 131.347 136.399 134.289 134.961 134.289C133.524 134.289 132.358 131.348 132.358 127.72C132.358 124.093 134.726 114.744 134.961 114.751Z" fill="#42A0F0"/>
<path d="M134.565 125.637C134.945 125.769 135.06 126.59 134.823 127.472C134.585 128.354 134.084 128.962 133.704 128.83C133.324 128.698 133.208 127.876 133.446 126.994C133.684 126.113 134.184 125.505 134.565 125.637Z" fill="white"/>
<path d="M52.2961 99.9971H67.2481L58.6534 112.618L68.7026 112.808L47.6096 137.774L52.7204 118.74H43.3643L52.2961 99.9971Z" fill="url(#paint0_linear_480_3633)"/>
<path d="M50.0386 86.6133C68.5177 86.6133 83.498 71.557 83.498 52.984C83.498 34.4111 68.5177 19.3547 50.0386 19.3547C31.5594 19.3547 16.5791 34.4111 16.5791 52.984C16.5791 71.557 31.5594 86.6133 50.0386 86.6133Z" fill="#FA9E42"/>
<g filter="url(#filter0_f_480_3633)">
<path d="M47.6206 48.2015C58.7409 42.295 64.9608 32.2447 61.513 25.7535C58.0652 19.2623 46.2555 18.7883 35.1351 24.6948C24.0148 30.6012 17.795 40.6516 21.2427 47.1428C24.6905 53.634 36.5003 54.108 47.6206 48.2015Z" fill="#F8E36F"/>
</g>
<g filter="url(#filter1_d_480_3633)">
<path d="M124.278 111.659H53.4477C46.5766 111.653 39.974 108.99 35.0219 104.227C30.0699 99.464 27.1524 92.9697 26.8803 86.1041C26.6081 79.2384 29.0024 72.5336 33.5619 67.3933C38.1214 62.253 44.4926 59.0758 51.3417 58.5267C52.3184 51.6299 55.4328 45.2129 60.2467 40.1784C65.0606 35.1439 71.3318 31.7454 78.1779 30.4609C85.0241 29.1764 92.1007 30.0706 98.4122 33.0177C104.724 35.9648 109.952 40.8165 113.363 46.8902C119.617 44.725 126.375 44.472 132.774 46.1634C139.174 47.8548 144.924 51.414 149.292 56.387C153.66 61.36 156.448 67.5213 157.3 74.0852C158.152 80.6491 157.029 87.318 154.075 93.2412C152.342 98.5932 148.957 103.258 144.408 106.567C139.858 109.876 134.377 111.659 128.752 111.659H124.278Z" fill="url(#paint1_linear_480_3633)"/>
<path d="M128.751 111.289C131.608 111.289 134.416 110.832 137.099 109.933C139.693 109.063 142.128 107.794 144.337 106.16C146.521 104.545 148.435 102.611 150.026 100.411C151.637 98.1832 152.881 95.7326 153.723 93.1273L153.732 93.1006L153.744 93.0755C154.864 90.8379 155.726 88.4709 156.307 86.0401C156.905 83.5387 157.208 80.9542 157.208 78.3585C157.208 76.124 156.983 73.891 156.539 71.7216C156.106 69.6075 155.46 67.528 154.62 65.5408C153.795 63.5897 152.773 61.7077 151.584 59.9473C150.406 58.2036 149.053 56.5638 147.563 55.0735C146.072 53.5833 144.433 52.2303 142.689 51.0522C140.929 49.8629 139.047 48.8414 137.095 48.0162C135.108 47.1757 133.029 46.5301 130.915 46.0975C128.745 45.6536 126.512 45.4285 124.278 45.4285C120.578 45.4285 116.946 46.0374 113.484 47.2383L113.191 47.3396L113.04 47.0701C110.222 42.0596 106.123 37.8517 101.187 34.9014C98.6899 33.4093 96.0077 32.2563 93.2144 31.4744C90.3326 30.6677 87.3393 30.2587 84.3176 30.2587C80.2533 30.2587 76.2858 30.9902 72.5255 32.4328C68.8928 33.8265 65.5604 35.8397 62.6208 38.4164C59.6981 40.9784 57.2726 44.0013 55.4117 47.4011C53.5052 50.8844 52.2591 54.6444 51.708 58.5766L51.6668 58.8709L51.3705 58.8941C48.0559 59.1536 44.867 60.0262 41.8921 61.4879C39.0015 62.9081 36.4203 64.8291 34.2202 67.1974C29.6995 72.0638 27.2098 78.4043 27.2098 85.0508C27.2098 88.593 27.9035 92.0291 29.2716 95.2636C29.9291 96.8182 30.743 98.3176 31.6906 99.7203C32.6293 101.11 33.7073 102.416 34.8947 103.604C36.0821 104.791 37.3887 105.869 38.7781 106.808C40.1807 107.755 41.6802 108.569 43.2348 109.227C46.4693 110.595 49.9053 111.289 53.4475 111.289H124.278H128.751ZM128.751 111.659H124.278H53.4475C38.7526 111.659 26.8398 99.7457 26.8398 85.0508C26.8398 71.0644 37.6308 59.5985 51.3416 58.5252C53.6095 42.3419 67.5091 29.8887 84.3176 29.8887C96.7874 29.8887 107.656 36.7423 113.362 46.8887C116.782 45.7027 120.454 45.0585 124.278 45.0585C142.669 45.0585 157.578 59.9676 157.578 78.3585C157.578 83.7073 156.316 88.7625 154.075 93.241C150.621 103.929 140.589 111.659 128.751 111.659Z" fill="white" fill-opacity="0.5"/>
</g>
<defs>
<filter id="filter0_f_480_3633" x="0.291992" y="0.557129" width="82.1719" height="71.782" filterUnits="userSpaceOnUse" color-interpolation-filters="sRGB">
<feFlood flood-opacity="0" result="BackgroundImageFix"/>
<feBlend mode="normal" in="SourceGraphic" in2="BackgroundImageFix" result="shape"/>
<feGaussianBlur stdDeviation="10" result="effect1_foregroundBlur_480_3633"/>
</filter>
<filter id="filter1_d_480_3633" x="6.83984" y="1.88867" width="190.737" height="141.77" filterUnits="userSpaceOnUse" color-interpolation-filters="sRGB">
<feFlood flood-opacity="0" result="BackgroundImageFix"/>
<feColorMatrix in="SourceAlpha" type="matrix" values="0 0 0 0 0 0 0 0 0 0 0 0 0 0 0 0 0 0 127 0" result="hardAlpha"/>
<feOffset dx="10" dy="2"/>
<feGaussianBlur stdDeviation="15"/>
<feColorMatrix type="matrix" values="0 0 0 0 0.501961 0 0 0 0 0.501961 0 0 0 0 0.501961 0 0 0 0.302 0"/>
<feBlend mode="normal" in2="BackgroundImageFix" result="effect1_dropShadow_480_3633"/>
<feBlend mode="normal" in="SourceGraphic" in2="effect1_dropShadow_480_3633" result="shape"/>
</filter>
<linearGradient id="paint0_linear_480_3633" x1="53.7023" y1="118.886" x2="41.8666" y2="114.547" gradientUnits="userSpaceOnUse">
<stop stop-color="#FFD100"/>
<stop offset="1" stop-color="#FFF0AA"/>
</linearGradient>
<linearGradient id="paint1_linear_480_3633" x1="92.2181" y1="29.8896" x2="130.196" y2="121.71" gradientUnits="userSpaceOnUse">
<stop stop-color="white" stop-opacity="0.604"/>
<stop offset="1" stop-color="white" stop-opacity="0.2"/>
</linearGradient>
</defs>
</svg>
