<svg width="191" height="149" viewBox="0 0 191 149" fill="none" xmlns="http://www.w3.org/2000/svg">
<path d="M72.0707 94.4478C72.3042 94.4544 74.6737 103.79 74.6737 107.417C74.6737 111.044 73.5082 113.986 72.0707 113.986C70.6333 113.986 69.4678 111.045 69.4678 107.417C69.4678 103.79 71.8358 94.4415 72.0707 94.4478Z" fill="#42A0F0"/>
<path d="M71.6739 105.334C72.0541 105.466 72.1697 106.287 71.9322 107.169C71.6947 108.051 71.1936 108.659 70.8133 108.527C70.433 108.395 70.3172 107.573 70.555 106.691C70.7929 105.81 71.2932 105.202 71.6739 105.334Z" fill="white"/>
<path d="M94.2455 94.4478C94.479 94.4544 96.8485 103.79 96.8485 107.417C96.8485 111.044 95.683 113.986 94.2455 113.986C92.8081 113.986 91.6426 111.045 91.6426 107.417C91.6426 103.79 94.0106 94.4415 94.2455 94.4478Z" fill="#42A0F0"/>
<path d="M93.8487 105.334C94.2289 105.466 94.3445 106.287 94.107 107.169C93.8695 108.051 93.3684 108.659 92.9881 108.527C92.6079 108.395 92.492 107.573 92.7299 106.691C92.9677 105.81 93.4681 105.202 93.8487 105.334Z" fill="white"/>
<path d="M116.419 93.3376C116.653 93.3443 119.022 102.679 119.022 106.307C119.022 109.934 117.857 112.875 116.419 112.875C114.982 112.875 113.816 109.935 113.816 106.307C113.816 102.68 116.184 93.3314 116.419 93.3376Z" fill="#42A0F0"/>
<path d="M116.023 104.224C116.403 104.356 116.518 105.177 116.281 106.059C116.043 106.941 115.542 107.549 115.162 107.417C114.782 107.285 114.666 106.463 114.904 105.581C115.142 104.7 115.642 104.092 116.023 104.224Z" fill="white"/>
<path d="M82.5063 119.238C82.7397 119.244 85.1092 128.579 85.1092 132.207C85.1092 135.834 83.9437 138.775 82.5063 138.775C81.0688 138.775 79.9033 135.835 79.9033 132.207C79.9033 128.58 82.2713 119.231 82.5063 119.238Z" fill="#42A0F0"/>
<path d="M82.1094 130.124C82.4896 130.256 82.6052 131.077 82.3677 131.959C82.1302 132.841 81.6292 133.449 81.2489 133.317C80.8686 133.185 80.7527 132.363 80.9906 131.481C81.2285 130.599 81.7288 129.992 82.1094 130.124Z" fill="white"/>
<path d="M104.68 119.238C104.914 119.244 107.283 128.579 107.283 132.207C107.283 135.834 106.118 138.775 104.68 138.775C103.243 138.775 102.077 135.835 102.077 132.207C102.077 128.58 104.445 119.231 104.68 119.238Z" fill="#42A0F0"/>
<path d="M104.283 130.124C104.663 130.256 104.779 131.077 104.542 131.959C104.304 132.841 103.803 133.449 103.423 133.317C103.042 133.185 102.927 132.363 103.164 131.481C103.402 130.599 103.903 129.992 104.283 130.124Z" fill="white"/>
<path d="M128.159 119.238C128.392 119.244 130.762 128.579 130.762 132.207C130.762 135.834 129.596 138.775 128.159 138.775C126.721 138.775 125.556 135.835 125.556 132.207C125.556 128.58 127.924 119.231 128.159 119.238Z" fill="#42A0F0"/>
<path d="M127.762 130.124C128.142 130.256 128.258 131.077 128.02 131.959C127.783 132.841 127.282 133.449 126.901 133.317C126.521 133.185 126.405 132.363 126.643 131.481C126.881 130.599 127.381 129.992 127.762 130.124Z" fill="white"/>
<path d="M47.7213 15.9791C50.146 15.9785 52.5644 16.2236 54.9396 16.7105C59.524 17.6548 63.8765 19.4957 67.7472 22.1273C73.1097 25.762 77.394 30.774 80.15 36.6367C82.906 42.4994 84.0318 48.9962 83.4092 55.4443C82.7866 61.8925 80.4385 68.0539 76.6116 73.2809C72.7848 78.508 67.6206 82.6076 61.6618 85.1491C59.4957 86.0694 57.2434 86.772 54.9382 87.2466C49.9396 88.2606 44.7823 88.1977 39.81 87.0622C34.8376 85.9266 30.1643 83.7444 26.1015 80.661C22.0387 77.5776 18.6796 73.6638 16.248 69.1803C13.8165 64.6968 12.3683 59.7467 12 54.6596C14.0843 55.1482 16.2181 55.3945 18.3589 55.3937C23.8727 55.4025 29.2623 53.7561 33.83 50.6677C38.2792 47.665 41.7622 43.4366 43.857 38.4947C45.2992 35.0872 46.0388 31.4237 46.0315 27.7236C46.0318 25.7142 45.8146 23.7107 45.3837 21.7481C44.9642 19.8463 44.344 17.9945 43.5337 16.2236C44.9236 16.0612 46.3219 15.9795 47.7213 15.9791V15.9791Z" fill="#713FFD"/>
<g filter="url(#filter0_f_480_3663)">
<path d="M71.9577 27.1082C63.9176 19.8689 53.3847 18.4593 48.432 23.9599C43.4792 29.4605 45.982 39.7883 54.0221 47.0277C62.0623 54.2671 72.5951 55.6766 77.5479 50.176C82.5006 44.6754 79.9978 34.3476 71.9577 27.1082Z" fill="#A586FC"/>
</g>
<path d="M45.4923 104.484H60.4444L51.8497 117.105L61.8989 117.295L40.8059 142.261L45.9167 123.227H36.5605L45.4923 104.484Z" fill="url(#paint0_linear_480_3663)"/>
<g filter="url(#filter1_d_480_3663)">
<path d="M117.475 116.146H46.645C39.7739 116.14 33.1712 113.477 28.2192 108.714C23.2672 103.951 20.3497 97.4565 20.0775 90.5909C19.8054 83.7252 22.1997 77.0204 26.7592 71.8801C31.3187 66.7398 37.6898 63.5626 44.5389 63.0135C45.5156 56.1167 48.63 49.6997 53.444 44.6652C58.2579 39.6307 64.5291 36.2322 71.3752 34.9477C78.2214 33.6632 85.298 34.5574 91.6094 37.5045C97.9209 40.4516 103.15 45.3033 106.56 51.377C112.815 49.2118 119.573 48.9588 125.972 50.6502C132.371 52.3416 138.121 55.9008 142.489 60.8738C146.857 65.8468 149.645 72.0082 150.497 78.572C151.349 85.1359 150.226 91.8048 147.272 97.728C145.539 103.08 142.155 107.745 137.605 111.054C133.055 114.363 127.574 116.145 121.949 116.146H117.475Z" fill="url(#paint1_linear_480_3663)"/>
<path d="M121.949 115.775C124.805 115.775 127.614 115.319 130.296 114.42C132.89 113.55 135.326 112.281 137.534 110.647C139.718 109.032 141.632 107.098 143.223 104.898C144.834 102.67 146.078 100.219 146.92 97.6141L146.929 97.5874L146.941 97.5623C148.061 95.3247 148.923 92.9577 149.504 90.5269C150.102 88.0255 150.405 85.4411 150.405 82.8453C150.405 80.6108 150.18 78.3779 149.736 76.2084C149.303 74.0943 148.658 72.0148 147.817 70.0276C146.992 68.0765 145.971 66.1946 144.781 64.4342C143.603 62.6904 142.25 61.0506 140.76 59.5603C139.27 58.0701 137.63 56.7171 135.886 55.5391C134.126 54.3497 132.244 53.3282 130.293 52.503C128.306 51.6625 126.226 51.0169 124.112 50.5843C121.942 50.1404 119.709 49.9153 117.475 49.9153C113.775 49.9153 110.143 50.5242 106.681 51.7251L106.389 51.8264L106.237 51.5569C103.419 46.5464 99.3205 42.3385 94.3838 39.3882C91.8872 37.8961 89.205 36.7431 86.4116 35.9612C83.5299 35.1545 80.5366 34.7455 77.5149 34.7455C73.4505 34.7455 69.4831 35.477 65.7228 36.9196C62.0901 38.3133 58.7577 40.3265 55.818 42.9032C52.8953 45.4652 50.4699 48.4881 48.609 51.8879C46.7025 55.3712 45.4563 59.1312 44.9053 63.0634L44.864 63.3577L44.5677 63.3809C41.2532 63.6404 38.0642 64.513 35.0894 65.9747C32.1988 67.3949 29.6176 69.3159 27.4175 71.6842C22.8968 76.5506 20.4071 82.8911 20.4071 89.5376C20.4071 93.0798 21.1008 96.5159 22.4689 99.7504C23.1264 101.305 23.9403 102.804 24.8879 104.207C25.8266 105.596 26.9046 106.903 28.092 108.09C29.2794 109.278 30.5859 110.356 31.9753 111.295C33.378 112.242 34.8774 113.056 36.432 113.714C39.6665 115.082 43.1026 115.775 46.6448 115.775H117.475H121.949ZM121.949 116.145H117.475H46.6448C31.9498 116.145 20.0371 104.233 20.0371 89.5376C20.0371 75.5512 30.828 64.0853 44.5389 63.0121C46.8068 46.8287 60.7064 34.3755 77.5149 34.3755C89.9847 34.3755 100.853 41.2291 106.56 51.3755C109.979 50.1895 113.652 49.5453 117.475 49.5453C135.866 49.5453 150.775 64.4544 150.775 82.8453C150.775 88.1941 149.513 93.2493 147.272 97.7279C143.818 108.416 133.786 116.145 121.949 116.145Z" fill="white" fill-opacity="0.5"/>
</g>
<defs>
<filter id="filter0_f_480_3663" x="25.8887" y="0.604492" width="74.2021" height="72.927" filterUnits="userSpaceOnUse" color-interpolation-filters="sRGB">
<feFlood flood-opacity="0" result="BackgroundImageFix"/>
<feBlend mode="normal" in="SourceGraphic" in2="BackgroundImageFix" result="shape"/>
<feGaussianBlur stdDeviation="10" result="effect1_foregroundBlur_480_3663"/>
</filter>
<filter id="filter1_d_480_3663" x="0.0371094" y="6.37549" width="190.737" height="141.77" filterUnits="userSpaceOnUse" color-interpolation-filters="sRGB">
<feFlood flood-opacity="0" result="BackgroundImageFix"/>
<feColorMatrix in="SourceAlpha" type="matrix" values="0 0 0 0 0 0 0 0 0 0 0 0 0 0 0 0 0 0 127 0" result="hardAlpha"/>
<feOffset dx="10" dy="2"/>
<feGaussianBlur stdDeviation="15"/>
<feColorMatrix type="matrix" values="0 0 0 0 0.501961 0 0 0 0 0.501961 0 0 0 0 0.501961 0 0 0 0.302 0"/>
<feBlend mode="normal" in2="BackgroundImageFix" result="effect1_dropShadow_480_3663"/>
<feBlend mode="normal" in="SourceGraphic" in2="effect1_dropShadow_480_3663" result="shape"/>
</filter>
<linearGradient id="paint0_linear_480_3663" x1="46.8986" y1="123.372" x2="35.0629" y2="119.033" gradientUnits="userSpaceOnUse">
<stop stop-color="#FFD100"/>
<stop offset="1" stop-color="#FFF0AA"/>
</linearGradient>
<linearGradient id="paint1_linear_480_3663" x1="85.4153" y1="34.3765" x2="123.393" y2="126.197" gradientUnits="userSpaceOnUse">
<stop stop-color="white" stop-opacity="0.604"/>
<stop offset="1" stop-color="white" stop-opacity="0.2"/>
</linearGradient>
</defs>
</svg>
